<?xml version="1.0" encoding="utf-8" standalone="no"?>
<!DOCTYPE svg PUBLIC "-//W3C//DTD SVG 1.1//EN"
  "http://www.w3.org/Graphics/SVG/1.1/DTD/svg11.dtd">
<svg xmlns:xlink="http://www.w3.org/1999/xlink" width="648pt" height="648pt" viewBox="0 0 648 648" xmlns="http://www.w3.org/2000/svg" version="1.1">
 <metadata>
  <rdf:RDF xmlns:dc="http://purl.org/dc/elements/1.1/" xmlns:cc="http://creativecommons.org/ns#" xmlns:rdf="http://www.w3.org/1999/02/22-rdf-syntax-ns#">
   <cc:Work>
    <dc:type rdf:resource="http://purl.org/dc/dcmitype/StillImage"/>
    <dc:date>2024-03-18T17:36:47.482038</dc:date>
    <dc:format>image/svg+xml</dc:format>
    <dc:creator>
     <cc:Agent>
      <dc:title>Matplotlib v3.8.2, https://matplotlib.org/</dc:title>
     </cc:Agent>
    </dc:creator>
   </cc:Work>
  </rdf:RDF>
 </metadata>
 <defs>
  <style type="text/css">*{stroke-linejoin: round; stroke-linecap: butt}</style>
 </defs>
 <g id="figure_1">
  <g id="patch_1">
   <path d="M 0 648 
L 648 648 
L 648 0 
L 0 0 
z
" style="fill: #ffffff"/>
  </g>
  <g id="axes_1">
   <g id="patch_2">
    <path d="M 81 304.56 
L 583.2 304.56 
L 583.2 77.76 
L 81 77.76 
z
" style="fill: #ffffff"/>
   </g>
   <g id="PolyCollection_1">
    <defs>
     <path id="m2f011750bd" d="M 275.031818 -425.527148 
L 275.031818 -417.578955 
L 280.935423 -419.703289 
L 286.839028 -421.822361 
L 292.742633 -423.935576 
L 298.646238 -426.042289 
L 304.549843 -428.141803 
L 310.453448 -430.233372 
L 316.357053 -432.316217 
L 322.260658 -434.389532 
L 328.164263 -436.452508 
L 334.067868 -438.504358 
L 339.971473 -440.544346 
L 345.875078 -442.571821 
L 351.778683 -444.586251 
L 357.682288 -446.587256 
L 363.585893 -448.574628 
L 369.489498 -450.548345 
L 375.393103 -452.50857 
L 381.296708 -454.455642 
L 387.200313 -456.390047 
L 393.103918 -458.312389 
L 399.007524 -460.22336 
L 404.911129 -462.123699 
L 410.814734 -464.01417 
L 416.718339 -465.895528 
L 422.621944 -467.768507 
L 428.525549 -469.633801 
L 434.429154 -471.492058 
L 440.332759 -473.343875 
L 446.236364 -475.189794 
L 446.236364 -483.117069 
L 446.236364 -483.117069 
L 440.332759 -481.004337 
L 434.429154 -478.896051 
L 428.525549 -476.792808 
L 422.621944 -474.695255 
L 416.718339 -472.60409 
L 410.814734 -470.520062 
L 404.911129 -468.443953 
L 399.007524 -466.376573 
L 393.103918 -464.318735 
L 387.200313 -462.271232 
L 381.296708 -460.234806 
L 375.393103 -458.210114 
L 369.489498 -456.197694 
L 363.585893 -454.197935 
L 357.682288 -452.211053 
L 351.778683 -450.237079 
L 345.875078 -448.275855 
L 339.971473 -446.327053 
L 334.067868 -444.390193 
L 328.164263 -442.464677 
L 322.260658 -440.54982 
L 316.357053 -438.644887 
L 310.453448 -436.749121 
L 304.549843 -434.861768 
L 298.646238 -432.982099 
L 292.742633 -431.109422 
L 286.839028 -429.243092 
L 280.935423 -427.382514 
L 275.031818 -425.527148 
z
" style="stroke: #d3d3d3"/>
    </defs>
    <g clip-path="url(#p284d12bd24)">
     <use xlink:href="#m2f011750bd" x="0" y="648" style="fill: #d3d3d3; stroke: #d3d3d3"/>
    </g>
   </g>
   <g id="PolyCollection_2">
    <defs>
     <path id="m713839960f" d="M 103.827273 -357.98119 
L 103.827273 -353.749091 
L 119.570219 -361.15776 
L 135.313166 -368.181935 
L 151.056113 -374.872575 
L 166.79906 -381.273911 
L 182.542006 -387.42634 
L 198.284953 -393.368069 
L 214.0279 -399.136036 
L 229.770846 -404.766437 
L 245.513793 -410.295038 
L 261.25674 -415.75735 
L 276.999687 -421.104875 
L 292.742633 -425.873486 
L 308.48558 -430.700175 
L 324.228527 -435.636398 
L 339.971473 -440.733279 
L 355.71442 -446.041399 
L 371.457367 -451.610511 
L 387.200313 -457.489102 
L 402.94326 -463.723712 
L 418.686207 -470.357788 
L 434.429154 -477.429707 
L 450.1721 -484.969385 
L 465.915047 -492.992926 
L 481.657994 -501.496364 
L 497.40094 -510.455186 
L 513.143887 -519.841136 
L 528.886834 -529.650183 
L 544.629781 -539.91093 
L 560.372727 -550.66883 
L 560.372727 -559.930909 
L 560.372727 -559.930909 
L 544.629781 -547.317026 
L 528.886834 -535.628048 
L 513.143887 -524.833499 
L 497.40094 -514.884782 
L 481.657994 -505.699479 
L 465.915047 -497.169824 
L 450.1721 -489.190755 
L 434.429154 -481.676788 
L 418.686207 -474.561617 
L 402.94326 -467.791942 
L 387.200313 -461.322181 
L 371.457367 -455.111173 
L 355.71442 -449.12027 
L 339.971473 -443.312279 
L 324.228527 -437.650852 
L 308.48558 -432.100138 
L 292.742633 -426.624574 
L 276.999687 -421.188755 
L 261.25674 -416.342721 
L 245.513793 -411.535385 
L 229.770846 -406.631354 
L 214.0279 -401.579405 
L 198.284953 -396.328797 
L 182.542006 -390.829538 
L 166.79906 -385.032771 
L 151.056113 -378.891385 
L 135.313166 -372.361016 
L 119.570219 -365.401768 
L 103.827273 -357.98119 
z
" style="stroke: #d3d3d3"/>
    </defs>
    <g clip-path="url(#p284d12bd24)">
     <use xlink:href="#m713839960f" x="0" y="648" style="fill: #d3d3d3; stroke: #d3d3d3"/>
    </g>
   </g>
   <g id="matplotlib.axis_1">
    <g id="xtick_1">
     <g id="line2d_1">
      <path d="M 111.54352 304.56 
L 111.54352 77.76 
" clip-path="url(#p284d12bd24)" style="fill: none; stroke: #b0b0b0; stroke-width: 0.8; stroke-linecap: square"/>
     </g>
     <g id="line2d_2">
      <defs>
       <path id="mffbb7084d3" d="M 0 0 
L 0 3.5 
" style="stroke: #000000; stroke-width: 0.8"/>
      </defs>
      <g>
       <use xlink:href="#mffbb7084d3" x="111.54352" y="304.56" style="stroke: #000000; stroke-width: 0.8"/>
      </g>
     </g>
     <g id="text_1">
      <!-- −0.10 -->
      <g transform="translate(96.220864 319.158437) scale(0.1 -0.1)">
       <defs>
        <path id="DejaVuSans-2212" d="M 678 2272 
L 4684 2272 
L 4684 1741 
L 678 1741 
L 678 2272 
z
" transform="scale(0.015625)"/>
        <path id="DejaVuSans-30" d="M 2034 4250 
Q 1547 4250 1301 3770 
Q 1056 3291 1056 2328 
Q 1056 1369 1301 889 
Q 1547 409 2034 409 
Q 2525 409 2770 889 
Q 3016 1369 3016 2328 
Q 3016 3291 2770 3770 
Q 2525 4250 2034 4250 
z
M 2034 4750 
Q 2819 4750 3233 4129 
Q 3647 3509 3647 2328 
Q 3647 1150 3233 529 
Q 2819 -91 2034 -91 
Q 1250 -91 836 529 
Q 422 1150 422 2328 
Q 422 3509 836 4129 
Q 1250 4750 2034 4750 
z
" transform="scale(0.015625)"/>
        <path id="DejaVuSans-2e" d="M 684 794 
L 1344 794 
L 1344 0 
L 684 0 
L 684 794 
z
" transform="scale(0.015625)"/>
        <path id="DejaVuSans-31" d="M 794 531 
L 1825 531 
L 1825 4091 
L 703 3866 
L 703 4441 
L 1819 4666 
L 2450 4666 
L 2450 531 
L 3481 531 
L 3481 0 
L 794 0 
L 794 531 
z
" transform="scale(0.015625)"/>
       </defs>
       <use xlink:href="#DejaVuSans-2212"/>
       <use xlink:href="#DejaVuSans-30" x="83.789062"/>
       <use xlink:href="#DejaVuSans-2e" x="147.412109"/>
       <use xlink:href="#DejaVuSans-31" x="179.199219"/>
       <use xlink:href="#DejaVuSans-30" x="242.822266"/>
      </g>
     </g>
    </g>
    <g id="xtick_2">
     <g id="line2d_3">
      <path d="M 193.287669 304.56 
L 193.287669 77.76 
" clip-path="url(#p284d12bd24)" style="fill: none; stroke: #b0b0b0; stroke-width: 0.8; stroke-linecap: square"/>
     </g>
     <g id="line2d_4">
      <g>
       <use xlink:href="#mffbb7084d3" x="193.287669" y="304.56" style="stroke: #000000; stroke-width: 0.8"/>
      </g>
     </g>
     <g id="text_2">
      <!-- −0.05 -->
      <g transform="translate(177.965013 319.158437) scale(0.1 -0.1)">
       <defs>
        <path id="DejaVuSans-35" d="M 691 4666 
L 3169 4666 
L 3169 4134 
L 1269 4134 
L 1269 2991 
Q 1406 3038 1543 3061 
Q 1681 3084 1819 3084 
Q 2600 3084 3056 2656 
Q 3513 2228 3513 1497 
Q 3513 744 3044 326 
Q 2575 -91 1722 -91 
Q 1428 -91 1123 -41 
Q 819 9 494 109 
L 494 744 
Q 775 591 1075 516 
Q 1375 441 1709 441 
Q 2250 441 2565 725 
Q 2881 1009 2881 1497 
Q 2881 1984 2565 2268 
Q 2250 2553 1709 2553 
Q 1456 2553 1204 2497 
Q 953 2441 691 2322 
L 691 4666 
z
" transform="scale(0.015625)"/>
       </defs>
       <use xlink:href="#DejaVuSans-2212"/>
       <use xlink:href="#DejaVuSans-30" x="83.789062"/>
       <use xlink:href="#DejaVuSans-2e" x="147.412109"/>
       <use xlink:href="#DejaVuSans-30" x="179.199219"/>
       <use xlink:href="#DejaVuSans-35" x="242.822266"/>
      </g>
     </g>
    </g>
    <g id="xtick_3">
     <g id="line2d_5">
      <path d="M 275.031818 304.56 
L 275.031818 77.76 
" clip-path="url(#p284d12bd24)" style="fill: none; stroke: #b0b0b0; stroke-width: 0.8; stroke-linecap: square"/>
     </g>
     <g id="line2d_6">
      <g>
       <use xlink:href="#mffbb7084d3" x="275.031818" y="304.56" style="stroke: #000000; stroke-width: 0.8"/>
      </g>
     </g>
     <g id="text_3">
      <!-- 0.00 -->
      <g transform="translate(263.899006 319.158437) scale(0.1 -0.1)">
       <use xlink:href="#DejaVuSans-30"/>
       <use xlink:href="#DejaVuSans-2e" x="63.623047"/>
       <use xlink:href="#DejaVuSans-30" x="95.410156"/>
       <use xlink:href="#DejaVuSans-30" x="159.033203"/>
      </g>
     </g>
    </g>
    <g id="xtick_4">
     <g id="line2d_7">
      <path d="M 356.775967 304.56 
L 356.775967 77.76 
" clip-path="url(#p284d12bd24)" style="fill: none; stroke: #b0b0b0; stroke-width: 0.8; stroke-linecap: square"/>
     </g>
     <g id="line2d_8">
      <g>
       <use xlink:href="#mffbb7084d3" x="356.775967" y="304.56" style="stroke: #000000; stroke-width: 0.8"/>
      </g>
     </g>
     <g id="text_4">
      <!-- 0.05 -->
      <g transform="translate(345.643155 319.158437) scale(0.1 -0.1)">
       <use xlink:href="#DejaVuSans-30"/>
       <use xlink:href="#DejaVuSans-2e" x="63.623047"/>
       <use xlink:href="#DejaVuSans-30" x="95.410156"/>
       <use xlink:href="#DejaVuSans-35" x="159.033203"/>
      </g>
     </g>
    </g>
    <g id="xtick_5">
     <g id="line2d_9">
      <path d="M 438.520117 304.56 
L 438.520117 77.76 
" clip-path="url(#p284d12bd24)" style="fill: none; stroke: #b0b0b0; stroke-width: 0.8; stroke-linecap: square"/>
     </g>
     <g id="line2d_10">
      <g>
       <use xlink:href="#mffbb7084d3" x="438.520117" y="304.56" style="stroke: #000000; stroke-width: 0.8"/>
      </g>
     </g>
     <g id="text_5">
      <!-- 0.10 -->
      <g transform="translate(427.387304 319.158437) scale(0.1 -0.1)">
       <use xlink:href="#DejaVuSans-30"/>
       <use xlink:href="#DejaVuSans-2e" x="63.623047"/>
       <use xlink:href="#DejaVuSans-31" x="95.410156"/>
       <use xlink:href="#DejaVuSans-30" x="159.033203"/>
      </g>
     </g>
    </g>
    <g id="xtick_6">
     <g id="line2d_11">
      <path d="M 520.264266 304.56 
L 520.264266 77.76 
" clip-path="url(#p284d12bd24)" style="fill: none; stroke: #b0b0b0; stroke-width: 0.8; stroke-linecap: square"/>
     </g>
     <g id="line2d_12">
      <g>
       <use xlink:href="#mffbb7084d3" x="520.264266" y="304.56" style="stroke: #000000; stroke-width: 0.8"/>
      </g>
     </g>
     <g id="text_6">
      <!-- 0.15 -->
      <g transform="translate(509.131453 319.158437) scale(0.1 -0.1)">
       <use xlink:href="#DejaVuSans-30"/>
       <use xlink:href="#DejaVuSans-2e" x="63.623047"/>
       <use xlink:href="#DejaVuSans-31" x="95.410156"/>
       <use xlink:href="#DejaVuSans-35" x="159.033203"/>
      </g>
     </g>
    </g>
   </g>
   <g id="matplotlib.axis_2">
    <g id="ytick_1">
     <g id="line2d_13">
      <path d="M 81 284.084177 
L 583.2 284.084177 
" clip-path="url(#p284d12bd24)" style="fill: none; stroke: #b0b0b0; stroke-width: 0.8; stroke-linecap: square"/>
     </g>
     <g id="line2d_14">
      <defs>
       <path id="md9fe231cdb" d="M 0 0 
L -3.5 0 
" style="stroke: #000000; stroke-width: 0.8"/>
      </defs>
      <g>
       <use xlink:href="#md9fe231cdb" x="81" y="284.084177" style="stroke: #000000; stroke-width: 0.8"/>
      </g>
     </g>
     <g id="text_7">
      <!-- −0.0010 -->
      <g transform="translate(30.629687 287.883395) scale(0.1 -0.1)">
       <use xlink:href="#DejaVuSans-2212"/>
       <use xlink:href="#DejaVuSans-30" x="83.789062"/>
       <use xlink:href="#DejaVuSans-2e" x="147.412109"/>
       <use xlink:href="#DejaVuSans-30" x="179.199219"/>
       <use xlink:href="#DejaVuSans-30" x="242.822266"/>
       <use xlink:href="#DejaVuSans-31" x="306.445312"/>
       <use xlink:href="#DejaVuSans-30" x="370.068359"/>
      </g>
     </g>
    </g>
    <g id="ytick_2">
     <g id="line2d_15">
      <path d="M 81 255.786932 
L 583.2 255.786932 
" clip-path="url(#p284d12bd24)" style="fill: none; stroke: #b0b0b0; stroke-width: 0.8; stroke-linecap: square"/>
     </g>
     <g id="line2d_16">
      <g>
       <use xlink:href="#md9fe231cdb" x="81" y="255.786932" style="stroke: #000000; stroke-width: 0.8"/>
      </g>
     </g>
     <g id="text_8">
      <!-- −0.0005 -->
      <g transform="translate(30.629687 259.586151) scale(0.1 -0.1)">
       <use xlink:href="#DejaVuSans-2212"/>
       <use xlink:href="#DejaVuSans-30" x="83.789062"/>
       <use xlink:href="#DejaVuSans-2e" x="147.412109"/>
       <use xlink:href="#DejaVuSans-30" x="179.199219"/>
       <use xlink:href="#DejaVuSans-30" x="242.822266"/>
       <use xlink:href="#DejaVuSans-30" x="306.445312"/>
       <use xlink:href="#DejaVuSans-35" x="370.068359"/>
      </g>
     </g>
    </g>
    <g id="ytick_3">
     <g id="line2d_17">
      <path d="M 81 227.489688 
L 583.2 227.489688 
" clip-path="url(#p284d12bd24)" style="fill: none; stroke: #b0b0b0; stroke-width: 0.8; stroke-linecap: square"/>
     </g>
     <g id="line2d_18">
      <g>
       <use xlink:href="#md9fe231cdb" x="81" y="227.489688" style="stroke: #000000; stroke-width: 0.8"/>
      </g>
     </g>
     <g id="text_9">
      <!-- 0.0000 -->
      <g transform="translate(39.009375 231.288907) scale(0.1 -0.1)">
       <use xlink:href="#DejaVuSans-30"/>
       <use xlink:href="#DejaVuSans-2e" x="63.623047"/>
       <use xlink:href="#DejaVuSans-30" x="95.410156"/>
       <use xlink:href="#DejaVuSans-30" x="159.033203"/>
       <use xlink:href="#DejaVuSans-30" x="222.65625"/>
       <use xlink:href="#DejaVuSans-30" x="286.279297"/>
      </g>
     </g>
    </g>
    <g id="ytick_4">
     <g id="line2d_19">
      <path d="M 81 199.192444 
L 583.2 199.192444 
" clip-path="url(#p284d12bd24)" style="fill: none; stroke: #b0b0b0; stroke-width: 0.8; stroke-linecap: square"/>
     </g>
     <g id="line2d_20">
      <g>
       <use xlink:href="#md9fe231cdb" x="81" y="199.192444" style="stroke: #000000; stroke-width: 0.8"/>
      </g>
     </g>
     <g id="text_10">
      <!-- 0.0005 -->
      <g transform="translate(39.009375 202.991662) scale(0.1 -0.1)">
       <use xlink:href="#DejaVuSans-30"/>
       <use xlink:href="#DejaVuSans-2e" x="63.623047"/>
       <use xlink:href="#DejaVuSans-30" x="95.410156"/>
       <use xlink:href="#DejaVuSans-30" x="159.033203"/>
       <use xlink:href="#DejaVuSans-30" x="222.65625"/>
       <use xlink:href="#DejaVuSans-35" x="286.279297"/>
      </g>
     </g>
    </g>
    <g id="ytick_5">
     <g id="line2d_21">
      <path d="M 81 170.895199 
L 583.2 170.895199 
" clip-path="url(#p284d12bd24)" style="fill: none; stroke: #b0b0b0; stroke-width: 0.8; stroke-linecap: square"/>
     </g>
     <g id="line2d_22">
      <g>
       <use xlink:href="#md9fe231cdb" x="81" y="170.895199" style="stroke: #000000; stroke-width: 0.8"/>
      </g>
     </g>
     <g id="text_11">
      <!-- 0.0010 -->
      <g transform="translate(39.009375 174.694418) scale(0.1 -0.1)">
       <use xlink:href="#DejaVuSans-30"/>
       <use xlink:href="#DejaVuSans-2e" x="63.623047"/>
       <use xlink:href="#DejaVuSans-30" x="95.410156"/>
       <use xlink:href="#DejaVuSans-30" x="159.033203"/>
       <use xlink:href="#DejaVuSans-31" x="222.65625"/>
       <use xlink:href="#DejaVuSans-30" x="286.279297"/>
      </g>
     </g>
    </g>
    <g id="ytick_6">
     <g id="line2d_23">
      <path d="M 81 142.597955 
L 583.2 142.597955 
" clip-path="url(#p284d12bd24)" style="fill: none; stroke: #b0b0b0; stroke-width: 0.8; stroke-linecap: square"/>
     </g>
     <g id="line2d_24">
      <g>
       <use xlink:href="#md9fe231cdb" x="81" y="142.597955" style="stroke: #000000; stroke-width: 0.8"/>
      </g>
     </g>
     <g id="text_12">
      <!-- 0.0015 -->
      <g transform="translate(39.009375 146.397174) scale(0.1 -0.1)">
       <use xlink:href="#DejaVuSans-30"/>
       <use xlink:href="#DejaVuSans-2e" x="63.623047"/>
       <use xlink:href="#DejaVuSans-30" x="95.410156"/>
       <use xlink:href="#DejaVuSans-30" x="159.033203"/>
       <use xlink:href="#DejaVuSans-31" x="222.65625"/>
       <use xlink:href="#DejaVuSans-35" x="286.279297"/>
      </g>
     </g>
    </g>
    <g id="ytick_7">
     <g id="line2d_25">
      <path d="M 81 114.30071 
L 583.2 114.30071 
" clip-path="url(#p284d12bd24)" style="fill: none; stroke: #b0b0b0; stroke-width: 0.8; stroke-linecap: square"/>
     </g>
     <g id="line2d_26">
      <g>
       <use xlink:href="#md9fe231cdb" x="81" y="114.30071" style="stroke: #000000; stroke-width: 0.8"/>
      </g>
     </g>
     <g id="text_13">
      <!-- 0.0020 -->
      <g transform="translate(39.009375 118.099929) scale(0.1 -0.1)">
       <defs>
        <path id="DejaVuSans-32" d="M 1228 531 
L 3431 531 
L 3431 0 
L 469 0 
L 469 531 
Q 828 903 1448 1529 
Q 2069 2156 2228 2338 
Q 2531 2678 2651 2914 
Q 2772 3150 2772 3378 
Q 2772 3750 2511 3984 
Q 2250 4219 1831 4219 
Q 1534 4219 1204 4116 
Q 875 4013 500 3803 
L 500 4441 
Q 881 4594 1212 4672 
Q 1544 4750 1819 4750 
Q 2544 4750 2975 4387 
Q 3406 4025 3406 3419 
Q 3406 3131 3298 2873 
Q 3191 2616 2906 2266 
Q 2828 2175 2409 1742 
Q 1991 1309 1228 531 
z
" transform="scale(0.015625)"/>
       </defs>
       <use xlink:href="#DejaVuSans-30"/>
       <use xlink:href="#DejaVuSans-2e" x="63.623047"/>
       <use xlink:href="#DejaVuSans-30" x="95.410156"/>
       <use xlink:href="#DejaVuSans-30" x="159.033203"/>
       <use xlink:href="#DejaVuSans-32" x="222.65625"/>
       <use xlink:href="#DejaVuSans-30" x="286.279297"/>
      </g>
     </g>
    </g>
    <g id="ytick_8">
     <g id="line2d_27">
      <path d="M 81 86.003466 
L 583.2 86.003466 
" clip-path="url(#p284d12bd24)" style="fill: none; stroke: #b0b0b0; stroke-width: 0.8; stroke-linecap: square"/>
     </g>
     <g id="line2d_28">
      <g>
       <use xlink:href="#md9fe231cdb" x="81" y="86.003466" style="stroke: #000000; stroke-width: 0.8"/>
      </g>
     </g>
     <g id="text_14">
      <!-- 0.0025 -->
      <g transform="translate(39.009375 89.802685) scale(0.1 -0.1)">
       <use xlink:href="#DejaVuSans-30"/>
       <use xlink:href="#DejaVuSans-2e" x="63.623047"/>
       <use xlink:href="#DejaVuSans-30" x="95.410156"/>
       <use xlink:href="#DejaVuSans-30" x="159.033203"/>
       <use xlink:href="#DejaVuSans-32" x="222.65625"/>
       <use xlink:href="#DejaVuSans-35" x="286.279297"/>
      </g>
     </g>
    </g>
    <g id="text_15">
     <!-- ${Y_D}'$ -->
     <g transform="translate(24.55 198.21) rotate(-90) scale(0.1 -0.1)">
      <defs>
       <path id="DejaVuSans-Oblique-59" d="M 403 4666 
L 1081 4666 
L 1953 2747 
L 3616 4666 
L 4325 4666 
L 2209 2222 
L 1778 0 
L 1147 0 
L 1575 2222 
L 403 4666 
z
" transform="scale(0.015625)"/>
       <path id="DejaVuSans-Oblique-44" d="M 1081 4666 
L 2438 4666 
Q 3519 4666 4070 4208 
Q 4622 3750 4622 2847 
Q 4622 2250 4412 1698 
Q 4203 1147 3834 769 
Q 3463 381 2891 190 
Q 2319 0 1538 0 
L 172 0 
L 1081 4666 
z
M 1613 4147 
L 909 519 
L 1734 519 
Q 2794 519 3375 1128 
Q 3956 1738 3956 2847 
Q 3956 3519 3581 3833 
Q 3206 4147 2406 4147 
L 1613 4147 
z
" transform="scale(0.015625)"/>
       <path id="Cmsy10-30" d="M 225 347 
Q 184 359 184 409 
L 966 3316 
Q 1003 3434 1093 3506 
Q 1184 3578 1300 3578 
Q 1450 3578 1564 3479 
Q 1678 3381 1678 3231 
Q 1678 3166 1644 3084 
L 488 319 
Q 466 275 428 275 
Q 394 275 320 306 
Q 247 338 225 347 
z
" transform="scale(0.015625)"/>
      </defs>
      <use xlink:href="#DejaVuSans-Oblique-59" transform="translate(0 0.584375)"/>
      <use xlink:href="#DejaVuSans-Oblique-44" transform="translate(61.083984 -15.821875) scale(0.7)"/>
      <use xlink:href="#Cmsy10-30" transform="translate(118.676758 38.865625) scale(0.7)"/>
     </g>
    </g>
   </g>
   <g id="line2d_29">
    <defs>
     <path id="m1edf7c9869" d="M 0 1.5 
C 0.397805 1.5 0.77937 1.341951 1.06066 1.06066 
C 1.341951 0.77937 1.5 0.397805 1.5 0 
C 1.5 -0.397805 1.341951 -0.77937 1.06066 -1.06066 
C 0.77937 -1.341951 0.397805 -1.5 0 -1.5 
C -0.397805 -1.5 -0.77937 -1.341951 -1.06066 -1.06066 
C -1.341951 -0.77937 -1.5 -0.397805 -1.5 0 
C -1.5 0.397805 -1.341951 0.77937 -1.06066 1.06066 
C -0.77937 1.341951 -0.397805 1.5 0 1.5 
z
" style="stroke: #1f77b4"/>
    </defs>
    <g clip-path="url(#p284d12bd24)">
     <use xlink:href="#m1edf7c9869" x="275.031818" y="226.592231" style="fill: #1f77b4; stroke: #1f77b4"/>
     <use xlink:href="#m1edf7c9869" x="275.031818" y="224.651981" style="fill: #1f77b4; stroke: #1f77b4"/>
     <use xlink:href="#m1edf7c9869" x="275.031818" y="227.652479" style="fill: #1f77b4; stroke: #1f77b4"/>
     <use xlink:href="#m1edf7c9869" x="275.031818" y="226.887318" style="fill: #1f77b4; stroke: #1f77b4"/>
     <use xlink:href="#m1edf7c9869" x="446.236364" y="172.834212" style="fill: #1f77b4; stroke: #1f77b4"/>
     <use xlink:href="#m1edf7c9869" x="446.236364" y="172.095628" style="fill: #1f77b4; stroke: #1f77b4"/>
     <use xlink:href="#m1edf7c9869" x="446.236364" y="163.992109" style="fill: #1f77b4; stroke: #1f77b4"/>
     <use xlink:href="#m1edf7c9869" x="446.236364" y="165.859327" style="fill: #1f77b4; stroke: #1f77b4"/>
    </g>
   </g>
   <g id="line2d_30">
    <path d="M 275.031818 226.446949 
L 280.935423 224.457098 
L 286.839028 222.467274 
L 292.742633 220.477501 
L 298.646238 218.487806 
L 304.549843 216.498215 
L 310.453448 214.508754 
L 316.357053 212.519448 
L 322.260658 210.530324 
L 328.164263 208.541407 
L 334.067868 206.552724 
L 339.971473 204.564301 
L 345.875078 202.576162 
L 351.778683 200.588335 
L 357.682288 198.600845 
L 363.585893 196.613719 
L 369.489498 194.626981 
L 375.393103 192.640658 
L 381.296708 190.654776 
L 387.200313 188.669361 
L 393.103918 186.684438 
L 399.007524 184.700034 
L 404.911129 182.716174 
L 410.814734 180.732884 
L 416.718339 178.750191 
L 422.621944 176.768119 
L 428.525549 174.786695 
L 434.429154 172.805945 
L 440.332759 170.825894 
L 446.236364 168.846569 
" clip-path="url(#p284d12bd24)" style="fill: none; stroke-dasharray: 5.55,2.4; stroke-dashoffset: 0; stroke: #1f77b4; stroke-width: 1.5"/>
   </g>
   <g id="line2d_31">
    <defs>
     <path id="m9eaa296e35" d="M 0 1.5 
C 0.397805 1.5 0.77937 1.341951 1.06066 1.06066 
C 1.341951 0.77937 1.5 0.397805 1.5 0 
C 1.5 -0.397805 1.341951 -0.77937 1.06066 -1.06066 
C 0.77937 -1.341951 0.397805 -1.5 0 -1.5 
C -0.397805 -1.5 -0.77937 -1.341951 -1.06066 -1.06066 
C -1.341951 -0.77937 -1.5 -0.397805 -1.5 0 
C -1.5 0.397805 -1.341951 0.77937 -1.06066 1.06066 
C -0.77937 1.341951 -0.397805 1.5 0 1.5 
z
" style="stroke: #ff7f0e"/>
    </defs>
    <g clip-path="url(#p284d12bd24)">
     <use xlink:href="#m9eaa296e35" x="103.827273" y="291.703664" style="fill: #ff7f0e; stroke: #ff7f0e"/>
     <use xlink:href="#m9eaa296e35" x="103.827273" y="290.222248" style="fill: #ff7f0e; stroke: #ff7f0e"/>
     <use xlink:href="#m9eaa296e35" x="103.827273" y="288.233777" style="fill: #ff7f0e; stroke: #ff7f0e"/>
     <use xlink:href="#m9eaa296e35" x="103.827273" y="291.886532" style="fill: #ff7f0e; stroke: #ff7f0e"/>
     <use xlink:href="#m9eaa296e35" x="275.031818" y="230.314256" style="fill: #ff7f0e; stroke: #ff7f0e"/>
     <use xlink:href="#m9eaa296e35" x="275.031818" y="225.656306" style="fill: #ff7f0e; stroke: #ff7f0e"/>
     <use xlink:href="#m9eaa296e35" x="275.031818" y="229.733437" style="fill: #ff7f0e; stroke: #ff7f0e"/>
     <use xlink:href="#m9eaa296e35" x="275.031818" y="226.082133" style="fill: #ff7f0e; stroke: #ff7f0e"/>
     <use xlink:href="#m9eaa296e35" x="275.031818" y="231.332706" style="fill: #ff7f0e; stroke: #ff7f0e"/>
     <use xlink:href="#m9eaa296e35" x="275.031818" y="229.564486" style="fill: #ff7f0e; stroke: #ff7f0e"/>
     <use xlink:href="#m9eaa296e35" x="275.031818" y="229.486159" style="fill: #ff7f0e; stroke: #ff7f0e"/>
     <use xlink:href="#m9eaa296e35" x="275.031818" y="230.691012" style="fill: #ff7f0e; stroke: #ff7f0e"/>
     <use xlink:href="#m9eaa296e35" x="275.031818" y="229.542194" style="fill: #ff7f0e; stroke: #ff7f0e"/>
     <use xlink:href="#m9eaa296e35" x="275.031818" y="229.081344" style="fill: #ff7f0e; stroke: #ff7f0e"/>
     <use xlink:href="#m9eaa296e35" x="275.031818" y="229.130578" style="fill: #ff7f0e; stroke: #ff7f0e"/>
     <use xlink:href="#m9eaa296e35" x="275.031818" y="224.010326" style="fill: #ff7f0e; stroke: #ff7f0e"/>
     <use xlink:href="#m9eaa296e35" x="446.236364" y="160.98161" style="fill: #ff7f0e; stroke: #ff7f0e"/>
     <use xlink:href="#m9eaa296e35" x="446.236364" y="154.41076" style="fill: #ff7f0e; stroke: #ff7f0e"/>
     <use xlink:href="#m9eaa296e35" x="446.236364" y="161.47336" style="fill: #ff7f0e; stroke: #ff7f0e"/>
     <use xlink:href="#m9eaa296e35" x="446.236364" y="165.790062" style="fill: #ff7f0e; stroke: #ff7f0e"/>
     <use xlink:href="#m9eaa296e35" x="446.236364" y="163.113614" style="fill: #ff7f0e; stroke: #ff7f0e"/>
     <use xlink:href="#m9eaa296e35" x="560.372727" y="93.868493" style="fill: #ff7f0e; stroke: #ff7f0e"/>
     <use xlink:href="#m9eaa296e35" x="560.372727" y="90.267646" style="fill: #ff7f0e; stroke: #ff7f0e"/>
    </g>
   </g>
   <g id="line2d_32">
    <path d="M 103.827273 292.134859 
L 119.570219 284.720236 
L 135.313166 277.728525 
L 151.056113 271.11802 
L 166.79906 264.846659 
L 182.542006 258.872061 
L 198.284953 253.151567 
L 214.0279 247.642279 
L 229.770846 242.301104 
L 245.513793 237.084789 
L 261.25674 231.949964 
L 276.999687 226.853185 
L 292.742633 221.75097 
L 308.48558 216.599844 
L 324.228527 211.356375 
L 339.971473 205.977221 
L 355.71442 200.419165 
L 371.457367 194.639158 
L 387.200313 188.594358 
L 402.94326 182.242173 
L 418.686207 175.540297 
L 434.429154 168.446753 
L 450.1721 160.91993 
L 465.915047 152.918625 
L 481.657994 144.402079 
L 497.40094 135.330016 
L 513.143887 125.662683 
L 528.886834 115.360884 
L 544.629781 104.386022 
L 560.372727 92.70013 
" clip-path="url(#p284d12bd24)" style="fill: none; stroke-dasharray: 5.55,2.4; stroke-dashoffset: 0; stroke: #ff7f0e; stroke-width: 1.5"/>
   </g>
   <g id="patch_3">
    <path d="M 81 304.56 
L 81 77.76 
" style="fill: none; stroke: #000000; stroke-width: 0.8; stroke-linejoin: miter; stroke-linecap: square"/>
   </g>
   <g id="patch_4">
    <path d="M 583.2 304.56 
L 583.2 77.76 
" style="fill: none; stroke: #000000; stroke-width: 0.8; stroke-linejoin: miter; stroke-linecap: square"/>
   </g>
   <g id="patch_5">
    <path d="M 81 304.56 
L 583.2 304.56 
" style="fill: none; stroke: #000000; stroke-width: 0.8; stroke-linejoin: miter; stroke-linecap: square"/>
   </g>
   <g id="patch_6">
    <path d="M 81 77.76 
L 583.2 77.76 
" style="fill: none; stroke: #000000; stroke-width: 0.8; stroke-linejoin: miter; stroke-linecap: square"/>
   </g>
   <g id="legend_1">
    <g id="patch_7">
     <path d="M 88 144.56 
L 222.6 144.56 
Q 224.6 144.56 224.6 142.56 
L 224.6 84.76 
Q 224.6 82.76 222.6 82.76 
L 88 82.76 
Q 86 82.76 86 84.76 
L 86 142.56 
Q 86 144.56 88 144.56 
z
" style="fill: #ffffff; opacity: 0.8; stroke: #cccccc; stroke-linejoin: miter"/>
    </g>
    <g id="line2d_33">
     <g>
      <use xlink:href="#m1edf7c9869" x="100" y="90.86" style="fill: #1f77b4; stroke: #1f77b4"/>
     </g>
    </g>
    <g id="text_16">
     <!-- $\phi=$-5.0 [deg] -->
     <g transform="translate(118 94.36) scale(0.1 -0.1)">
      <defs>
       <path id="DejaVuSans-Oblique-3d5" d="M 2991 4863 
L 2738 3572 
Q 3363 3572 3684 3094 
Q 4016 2606 3850 1747 
Q 3681 888 3159 400 
Q 2653 -78 2028 -78 
L 1784 -1331 
L 1213 -1331 
L 1456 -78 
Q 834 -78 509 400 
Q 178 888 347 1747 
Q 513 2606 1034 3094 
Q 1544 3572 2166 3572 
L 2419 4863 
L 2991 4863 
z
M 2128 434 
Q 2481 434 2784 756 
Q 3116 1116 3244 1747 
Q 3369 2372 3169 2738 
Q 2991 3059 2638 3059 
L 2128 434 
z
M 1556 434 
L 2066 3059 
Q 1716 3059 1413 2738 
Q 1072 2372 953 1747 
Q 834 1116 1028 756 
Q 1203 434 1556 434 
z
" transform="scale(0.015625)"/>
       <path id="DejaVuSans-3d" d="M 678 2906 
L 4684 2906 
L 4684 2381 
L 678 2381 
L 678 2906 
z
M 678 1631 
L 4684 1631 
L 4684 1100 
L 678 1100 
L 678 1631 
z
" transform="scale(0.015625)"/>
       <path id="DejaVuSans-2d" d="M 313 2009 
L 1997 2009 
L 1997 1497 
L 313 1497 
L 313 2009 
z
" transform="scale(0.015625)"/>
       <path id="DejaVuSans-20" transform="scale(0.015625)"/>
       <path id="DejaVuSans-5b" d="M 550 4863 
L 1875 4863 
L 1875 4416 
L 1125 4416 
L 1125 -397 
L 1875 -397 
L 1875 -844 
L 550 -844 
L 550 4863 
z
" transform="scale(0.015625)"/>
       <path id="DejaVuSans-64" d="M 2906 2969 
L 2906 4863 
L 3481 4863 
L 3481 0 
L 2906 0 
L 2906 525 
Q 2725 213 2448 61 
Q 2172 -91 1784 -91 
Q 1150 -91 751 415 
Q 353 922 353 1747 
Q 353 2572 751 3078 
Q 1150 3584 1784 3584 
Q 2172 3584 2448 3432 
Q 2725 3281 2906 2969 
z
M 947 1747 
Q 947 1113 1208 752 
Q 1469 391 1925 391 
Q 2381 391 2643 752 
Q 2906 1113 2906 1747 
Q 2906 2381 2643 2742 
Q 2381 3103 1925 3103 
Q 1469 3103 1208 2742 
Q 947 2381 947 1747 
z
" transform="scale(0.015625)"/>
       <path id="DejaVuSans-65" d="M 3597 1894 
L 3597 1613 
L 953 1613 
Q 991 1019 1311 708 
Q 1631 397 2203 397 
Q 2534 397 2845 478 
Q 3156 559 3463 722 
L 3463 178 
Q 3153 47 2828 -22 
Q 2503 -91 2169 -91 
Q 1331 -91 842 396 
Q 353 884 353 1716 
Q 353 2575 817 3079 
Q 1281 3584 2069 3584 
Q 2775 3584 3186 3129 
Q 3597 2675 3597 1894 
z
M 3022 2063 
Q 3016 2534 2758 2815 
Q 2500 3097 2075 3097 
Q 1594 3097 1305 2825 
Q 1016 2553 972 2059 
L 3022 2063 
z
" transform="scale(0.015625)"/>
       <path id="DejaVuSans-67" d="M 2906 1791 
Q 2906 2416 2648 2759 
Q 2391 3103 1925 3103 
Q 1463 3103 1205 2759 
Q 947 2416 947 1791 
Q 947 1169 1205 825 
Q 1463 481 1925 481 
Q 2391 481 2648 825 
Q 2906 1169 2906 1791 
z
M 3481 434 
Q 3481 -459 3084 -895 
Q 2688 -1331 1869 -1331 
Q 1566 -1331 1297 -1286 
Q 1028 -1241 775 -1147 
L 775 -588 
Q 1028 -725 1275 -790 
Q 1522 -856 1778 -856 
Q 2344 -856 2625 -561 
Q 2906 -266 2906 331 
L 2906 616 
Q 2728 306 2450 153 
Q 2172 0 1784 0 
Q 1141 0 747 490 
Q 353 981 353 1791 
Q 353 2603 747 3093 
Q 1141 3584 1784 3584 
Q 2172 3584 2450 3431 
Q 2728 3278 2906 2969 
L 2906 3500 
L 3481 3500 
L 3481 434 
z
" transform="scale(0.015625)"/>
       <path id="DejaVuSans-5d" d="M 1947 4863 
L 1947 -844 
L 622 -844 
L 622 -397 
L 1369 -397 
L 1369 4416 
L 622 4416 
L 622 4863 
L 1947 4863 
z
" transform="scale(0.015625)"/>
      </defs>
      <use xlink:href="#DejaVuSans-Oblique-3d5" transform="translate(0 0.015625)"/>
      <use xlink:href="#DejaVuSans-3d" transform="translate(85.449219 0.015625)"/>
      <use xlink:href="#DejaVuSans-2d" transform="translate(188.720703 0.015625)"/>
      <use xlink:href="#DejaVuSans-35" transform="translate(224.804688 0.015625)"/>
      <use xlink:href="#DejaVuSans-2e" transform="translate(288.427734 0.015625)"/>
      <use xlink:href="#DejaVuSans-30" transform="translate(320.214844 0.015625)"/>
      <use xlink:href="#DejaVuSans-20" transform="translate(383.837891 0.015625)"/>
      <use xlink:href="#DejaVuSans-5b" transform="translate(415.625 0.015625)"/>
      <use xlink:href="#DejaVuSans-64" transform="translate(454.638672 0.015625)"/>
      <use xlink:href="#DejaVuSans-65" transform="translate(518.115234 0.015625)"/>
      <use xlink:href="#DejaVuSans-67" transform="translate(579.638672 0.015625)"/>
      <use xlink:href="#DejaVuSans-5d" transform="translate(643.115234 0.015625)"/>
     </g>
    </g>
    <g id="line2d_34">
     <path d="M 90 105.56 
L 100 105.56 
L 110 105.56 
" style="fill: none; stroke-dasharray: 5.55,2.4; stroke-dashoffset: 0; stroke: #1f77b4; stroke-width: 1.5"/>
    </g>
    <g id="text_17">
     <!-- model $\phi=$-5.0 [deg] -->
     <g transform="translate(118 109.06) scale(0.1 -0.1)">
      <defs>
       <path id="DejaVuSans-6d" d="M 3328 2828 
Q 3544 3216 3844 3400 
Q 4144 3584 4550 3584 
Q 5097 3584 5394 3201 
Q 5691 2819 5691 2113 
L 5691 0 
L 5113 0 
L 5113 2094 
Q 5113 2597 4934 2840 
Q 4756 3084 4391 3084 
Q 3944 3084 3684 2787 
Q 3425 2491 3425 1978 
L 3425 0 
L 2847 0 
L 2847 2094 
Q 2847 2600 2669 2842 
Q 2491 3084 2119 3084 
Q 1678 3084 1418 2786 
Q 1159 2488 1159 1978 
L 1159 0 
L 581 0 
L 581 3500 
L 1159 3500 
L 1159 2956 
Q 1356 3278 1631 3431 
Q 1906 3584 2284 3584 
Q 2666 3584 2933 3390 
Q 3200 3197 3328 2828 
z
" transform="scale(0.015625)"/>
       <path id="DejaVuSans-6f" d="M 1959 3097 
Q 1497 3097 1228 2736 
Q 959 2375 959 1747 
Q 959 1119 1226 758 
Q 1494 397 1959 397 
Q 2419 397 2687 759 
Q 2956 1122 2956 1747 
Q 2956 2369 2687 2733 
Q 2419 3097 1959 3097 
z
M 1959 3584 
Q 2709 3584 3137 3096 
Q 3566 2609 3566 1747 
Q 3566 888 3137 398 
Q 2709 -91 1959 -91 
Q 1206 -91 779 398 
Q 353 888 353 1747 
Q 353 2609 779 3096 
Q 1206 3584 1959 3584 
z
" transform="scale(0.015625)"/>
       <path id="DejaVuSans-6c" d="M 603 4863 
L 1178 4863 
L 1178 0 
L 603 0 
L 603 4863 
z
" transform="scale(0.015625)"/>
      </defs>
      <use xlink:href="#DejaVuSans-6d" transform="translate(0 0.015625)"/>
      <use xlink:href="#DejaVuSans-6f" transform="translate(97.412109 0.015625)"/>
      <use xlink:href="#DejaVuSans-64" transform="translate(158.59375 0.015625)"/>
      <use xlink:href="#DejaVuSans-65" transform="translate(222.070312 0.015625)"/>
      <use xlink:href="#DejaVuSans-6c" transform="translate(283.59375 0.015625)"/>
      <use xlink:href="#DejaVuSans-20" transform="translate(311.376953 0.015625)"/>
      <use xlink:href="#DejaVuSans-Oblique-3d5" transform="translate(343.164062 0.015625)"/>
      <use xlink:href="#DejaVuSans-3d" transform="translate(428.613281 0.015625)"/>
      <use xlink:href="#DejaVuSans-2d" transform="translate(531.884766 0.015625)"/>
      <use xlink:href="#DejaVuSans-35" transform="translate(567.96875 0.015625)"/>
      <use xlink:href="#DejaVuSans-2e" transform="translate(631.591797 0.015625)"/>
      <use xlink:href="#DejaVuSans-30" transform="translate(663.378906 0.015625)"/>
      <use xlink:href="#DejaVuSans-20" transform="translate(727.001953 0.015625)"/>
      <use xlink:href="#DejaVuSans-5b" transform="translate(758.789062 0.015625)"/>
      <use xlink:href="#DejaVuSans-64" transform="translate(797.802734 0.015625)"/>
      <use xlink:href="#DejaVuSans-65" transform="translate(861.279297 0.015625)"/>
      <use xlink:href="#DejaVuSans-67" transform="translate(922.802734 0.015625)"/>
      <use xlink:href="#DejaVuSans-5d" transform="translate(986.279297 0.015625)"/>
     </g>
    </g>
    <g id="line2d_35">
     <g>
      <use xlink:href="#m9eaa296e35" x="100" y="120.26" style="fill: #ff7f0e; stroke: #ff7f0e"/>
     </g>
    </g>
    <g id="text_18">
     <!-- $\phi=$0.0 [deg] -->
     <g transform="translate(118 123.76) scale(0.1 -0.1)">
      <use xlink:href="#DejaVuSans-Oblique-3d5" transform="translate(0 0.015625)"/>
      <use xlink:href="#DejaVuSans-3d" transform="translate(85.449219 0.015625)"/>
      <use xlink:href="#DejaVuSans-30" transform="translate(188.720703 0.015625)"/>
      <use xlink:href="#DejaVuSans-2e" transform="translate(252.34375 0.015625)"/>
      <use xlink:href="#DejaVuSans-30" transform="translate(284.130859 0.015625)"/>
      <use xlink:href="#DejaVuSans-20" transform="translate(347.753906 0.015625)"/>
      <use xlink:href="#DejaVuSans-5b" transform="translate(379.541016 0.015625)"/>
      <use xlink:href="#DejaVuSans-64" transform="translate(418.554688 0.015625)"/>
      <use xlink:href="#DejaVuSans-65" transform="translate(482.03125 0.015625)"/>
      <use xlink:href="#DejaVuSans-67" transform="translate(543.554688 0.015625)"/>
      <use xlink:href="#DejaVuSans-5d" transform="translate(607.03125 0.015625)"/>
     </g>
    </g>
    <g id="line2d_36">
     <path d="M 90 134.96 
L 100 134.96 
L 110 134.96 
" style="fill: none; stroke-dasharray: 5.55,2.4; stroke-dashoffset: 0; stroke: #ff7f0e; stroke-width: 1.5"/>
    </g>
    <g id="text_19">
     <!-- model $\phi=$0.0 [deg] -->
     <g transform="translate(118 138.46) scale(0.1 -0.1)">
      <use xlink:href="#DejaVuSans-6d" transform="translate(0 0.015625)"/>
      <use xlink:href="#DejaVuSans-6f" transform="translate(97.412109 0.015625)"/>
      <use xlink:href="#DejaVuSans-64" transform="translate(158.59375 0.015625)"/>
      <use xlink:href="#DejaVuSans-65" transform="translate(222.070312 0.015625)"/>
      <use xlink:href="#DejaVuSans-6c" transform="translate(283.59375 0.015625)"/>
      <use xlink:href="#DejaVuSans-20" transform="translate(311.376953 0.015625)"/>
      <use xlink:href="#DejaVuSans-Oblique-3d5" transform="translate(343.164062 0.015625)"/>
      <use xlink:href="#DejaVuSans-3d" transform="translate(428.613281 0.015625)"/>
      <use xlink:href="#DejaVuSans-30" transform="translate(531.884766 0.015625)"/>
      <use xlink:href="#DejaVuSans-2e" transform="translate(595.507812 0.015625)"/>
      <use xlink:href="#DejaVuSans-30" transform="translate(627.294922 0.015625)"/>
      <use xlink:href="#DejaVuSans-20" transform="translate(690.917969 0.015625)"/>
      <use xlink:href="#DejaVuSans-5b" transform="translate(722.705078 0.015625)"/>
      <use xlink:href="#DejaVuSans-64" transform="translate(761.71875 0.015625)"/>
      <use xlink:href="#DejaVuSans-65" transform="translate(825.195312 0.015625)"/>
      <use xlink:href="#DejaVuSans-67" transform="translate(886.71875 0.015625)"/>
      <use xlink:href="#DejaVuSans-5d" transform="translate(950.195312 0.015625)"/>
     </g>
    </g>
   </g>
  </g>
  <g id="axes_2">
   <g id="patch_8">
    <path d="M 81 576.72 
L 583.2 576.72 
L 583.2 349.92 
L 81 349.92 
z
" style="fill: #ffffff"/>
   </g>
   <g id="PolyCollection_3">
    <defs>
     <path id="m88703696a7" d="M 275.031818 -182.640267 
L 275.031818 -161.184959 
L 280.935423 -164.837656 
L 286.839028 -168.476173 
L 292.742633 -172.098936 
L 298.646238 -175.704228 
L 304.549843 -179.290194 
L 310.453448 -182.854852 
L 316.357053 -186.396122 
L 322.260658 -189.911856 
L 328.164263 -193.3999 
L 334.067868 -196.858154 
L 339.971473 -200.284658 
L 345.875078 -203.677683 
L 351.778683 -207.035822 
L 357.682288 -210.358073 
L 363.585893 -213.643903 
L 369.489498 -216.89328 
L 375.393103 -220.106673 
L 381.296708 -223.285019 
L 387.200313 -226.429659 
L 393.103918 -229.542255 
L 399.007524 -232.624696 
L 404.911129 -235.67901 
L 410.814734 -238.707279 
L 416.718339 -241.711575 
L 422.621944 -244.693901 
L 428.525549 -247.656161 
L 434.429154 -250.600131 
L 440.332759 -253.527446 
L 446.236364 -256.4396 
L 446.236364 -277.838441 
L 446.236364 -277.838441 
L 440.332759 -274.206053 
L 434.429154 -270.586428 
L 428.525549 -266.981145 
L 422.621944 -263.391925 
L 416.718339 -259.820629 
L 410.814734 -256.269246 
L 404.911129 -252.739866 
L 399.007524 -249.234645 
L 393.103918 -245.755751 
L 387.200313 -242.305298 
L 381.296708 -238.885261 
L 375.393103 -235.497386 
L 369.489498 -232.1431 
L 363.585893 -228.823426 
L 357.682288 -225.53892 
L 351.778683 -222.289634 
L 345.875078 -219.075121 
L 339.971473 -215.894465 
L 334.067868 -212.746344 
L 328.164263 -209.629115 
L 322.260658 -206.540904 
L 316.357053 -203.479698 
L 310.453448 -200.443427 
L 304.549843 -197.430029 
L 298.646238 -194.43751 
L 292.742633 -191.463974 
L 286.839028 -188.507652 
L 280.935423 -185.566912 
L 275.031818 -182.640267 
z
" style="stroke: #d3d3d3"/>
    </defs>
    <g clip-path="url(#pb656c92a89)">
     <use xlink:href="#m88703696a7" x="0" y="648" style="fill: #d3d3d3; stroke: #d3d3d3"/>
    </g>
   </g>
   <g id="PolyCollection_4">
    <defs>
     <path id="m3cb3cefad9" d="M 103.827273 -86.615807 
L 103.827273 -82.574319 
L 119.570219 -89.558401 
L 135.313166 -96.472118 
L 151.056113 -103.334851 
L 166.79906 -110.159311 
L 182.542006 -116.954328 
L 198.284953 -123.726446 
L 214.0279 -130.480835 
L 229.770846 -137.221818 
L 245.513793 -143.953198 
L 261.25674 -150.678456 
L 276.999687 -157.320792 
L 292.742633 -163.406474 
L 308.48558 -169.513298 
L 324.228527 -175.659928 
L 339.971473 -181.864771 
L 355.71442 -188.145803 
L 371.457367 -194.520325 
L 387.200313 -201.004574 
L 402.94326 -207.613098 
L 418.686207 -214.357692 
L 434.429154 -221.245534 
L 450.1721 -228.275978 
L 465.915047 -235.43547 
L 481.657994 -242.691595 
L 497.40094 -249.992654 
L 513.143887 -257.283732 
L 528.886834 -264.533437 
L 544.629781 -271.741951 
L 560.372727 -278.925988 
L 560.372727 -287.770909 
L 560.372727 -287.770909 
L 544.629781 -278.814481 
L 528.886834 -270.242063 
L 513.143887 -262.051242 
L 497.40094 -254.222744 
L 481.657994 -246.705405 
L 465.915047 -239.424243 
L 450.1721 -232.307221 
L 434.429154 -225.301329 
L 418.686207 -218.372183 
L 402.94326 -211.498097 
L 387.200313 -204.665014 
L 371.457367 -197.863319 
L 355.71442 -191.086003 
L 339.971473 -184.327614 
L 324.228527 -177.583653 
L 308.48558 -170.850208 
L 292.742633 -164.123734 
L 276.999687 -157.400894 
L 261.25674 -151.237462 
L 245.513793 -145.137681 
L 229.770846 -139.002741 
L 214.0279 -132.814157 
L 198.284953 -126.553825 
L 182.542006 -120.204248 
L 166.79906 -113.748875 
L 151.056113 -107.172656 
L 135.313166 -100.462975 
L 119.570219 -93.611262 
L 103.827273 -86.615807 
z
" style="stroke: #d3d3d3"/>
    </defs>
    <g clip-path="url(#pb656c92a89)">
     <use xlink:href="#m3cb3cefad9" x="0" y="648" style="fill: #d3d3d3; stroke: #d3d3d3"/>
    </g>
   </g>
   <g id="matplotlib.axis_3">
    <g id="xtick_7">
     <g id="line2d_37">
      <path d="M 111.54352 576.72 
L 111.54352 349.92 
" clip-path="url(#pb656c92a89)" style="fill: none; stroke: #b0b0b0; stroke-width: 0.8; stroke-linecap: square"/>
     </g>
     <g id="line2d_38">
      <g>
       <use xlink:href="#mffbb7084d3" x="111.54352" y="576.72" style="stroke: #000000; stroke-width: 0.8"/>
      </g>
     </g>
     <g id="text_20">
      <!-- −0.10 -->
      <g transform="translate(96.220864 591.318438) scale(0.1 -0.1)">
       <use xlink:href="#DejaVuSans-2212"/>
       <use xlink:href="#DejaVuSans-30" x="83.789062"/>
       <use xlink:href="#DejaVuSans-2e" x="147.412109"/>
       <use xlink:href="#DejaVuSans-31" x="179.199219"/>
       <use xlink:href="#DejaVuSans-30" x="242.822266"/>
      </g>
     </g>
    </g>
    <g id="xtick_8">
     <g id="line2d_39">
      <path d="M 193.287669 576.72 
L 193.287669 349.92 
" clip-path="url(#pb656c92a89)" style="fill: none; stroke: #b0b0b0; stroke-width: 0.8; stroke-linecap: square"/>
     </g>
     <g id="line2d_40">
      <g>
       <use xlink:href="#mffbb7084d3" x="193.287669" y="576.72" style="stroke: #000000; stroke-width: 0.8"/>
      </g>
     </g>
     <g id="text_21">
      <!-- −0.05 -->
      <g transform="translate(177.965013 591.318438) scale(0.1 -0.1)">
       <use xlink:href="#DejaVuSans-2212"/>
       <use xlink:href="#DejaVuSans-30" x="83.789062"/>
       <use xlink:href="#DejaVuSans-2e" x="147.412109"/>
       <use xlink:href="#DejaVuSans-30" x="179.199219"/>
       <use xlink:href="#DejaVuSans-35" x="242.822266"/>
      </g>
     </g>
    </g>
    <g id="xtick_9">
     <g id="line2d_41">
      <path d="M 275.031818 576.72 
L 275.031818 349.92 
" clip-path="url(#pb656c92a89)" style="fill: none; stroke: #b0b0b0; stroke-width: 0.8; stroke-linecap: square"/>
     </g>
     <g id="line2d_42">
      <g>
       <use xlink:href="#mffbb7084d3" x="275.031818" y="576.72" style="stroke: #000000; stroke-width: 0.8"/>
      </g>
     </g>
     <g id="text_22">
      <!-- 0.00 -->
      <g transform="translate(263.899006 591.318438) scale(0.1 -0.1)">
       <use xlink:href="#DejaVuSans-30"/>
       <use xlink:href="#DejaVuSans-2e" x="63.623047"/>
       <use xlink:href="#DejaVuSans-30" x="95.410156"/>
       <use xlink:href="#DejaVuSans-30" x="159.033203"/>
      </g>
     </g>
    </g>
    <g id="xtick_10">
     <g id="line2d_43">
      <path d="M 356.775967 576.72 
L 356.775967 349.92 
" clip-path="url(#pb656c92a89)" style="fill: none; stroke: #b0b0b0; stroke-width: 0.8; stroke-linecap: square"/>
     </g>
     <g id="line2d_44">
      <g>
       <use xlink:href="#mffbb7084d3" x="356.775967" y="576.72" style="stroke: #000000; stroke-width: 0.8"/>
      </g>
     </g>
     <g id="text_23">
      <!-- 0.05 -->
      <g transform="translate(345.643155 591.318438) scale(0.1 -0.1)">
       <use xlink:href="#DejaVuSans-30"/>
       <use xlink:href="#DejaVuSans-2e" x="63.623047"/>
       <use xlink:href="#DejaVuSans-30" x="95.410156"/>
       <use xlink:href="#DejaVuSans-35" x="159.033203"/>
      </g>
     </g>
    </g>
    <g id="xtick_11">
     <g id="line2d_45">
      <path d="M 438.520117 576.72 
L 438.520117 349.92 
" clip-path="url(#pb656c92a89)" style="fill: none; stroke: #b0b0b0; stroke-width: 0.8; stroke-linecap: square"/>
     </g>
     <g id="line2d_46">
      <g>
       <use xlink:href="#mffbb7084d3" x="438.520117" y="576.72" style="stroke: #000000; stroke-width: 0.8"/>
      </g>
     </g>
     <g id="text_24">
      <!-- 0.10 -->
      <g transform="translate(427.387304 591.318438) scale(0.1 -0.1)">
       <use xlink:href="#DejaVuSans-30"/>
       <use xlink:href="#DejaVuSans-2e" x="63.623047"/>
       <use xlink:href="#DejaVuSans-31" x="95.410156"/>
       <use xlink:href="#DejaVuSans-30" x="159.033203"/>
      </g>
     </g>
    </g>
    <g id="xtick_12">
     <g id="line2d_47">
      <path d="M 520.264266 576.72 
L 520.264266 349.92 
" clip-path="url(#pb656c92a89)" style="fill: none; stroke: #b0b0b0; stroke-width: 0.8; stroke-linecap: square"/>
     </g>
     <g id="line2d_48">
      <g>
       <use xlink:href="#mffbb7084d3" x="520.264266" y="576.72" style="stroke: #000000; stroke-width: 0.8"/>
      </g>
     </g>
     <g id="text_25">
      <!-- 0.15 -->
      <g transform="translate(509.131453 591.318438) scale(0.1 -0.1)">
       <use xlink:href="#DejaVuSans-30"/>
       <use xlink:href="#DejaVuSans-2e" x="63.623047"/>
       <use xlink:href="#DejaVuSans-31" x="95.410156"/>
       <use xlink:href="#DejaVuSans-35" x="159.033203"/>
      </g>
     </g>
    </g>
    <g id="text_26">
     <!-- beta -->
     <g transform="translate(320.825 604.996562) scale(0.1 -0.1)">
      <defs>
       <path id="DejaVuSans-62" d="M 3116 1747 
Q 3116 2381 2855 2742 
Q 2594 3103 2138 3103 
Q 1681 3103 1420 2742 
Q 1159 2381 1159 1747 
Q 1159 1113 1420 752 
Q 1681 391 2138 391 
Q 2594 391 2855 752 
Q 3116 1113 3116 1747 
z
M 1159 2969 
Q 1341 3281 1617 3432 
Q 1894 3584 2278 3584 
Q 2916 3584 3314 3078 
Q 3713 2572 3713 1747 
Q 3713 922 3314 415 
Q 2916 -91 2278 -91 
Q 1894 -91 1617 61 
Q 1341 213 1159 525 
L 1159 0 
L 581 0 
L 581 4863 
L 1159 4863 
L 1159 2969 
z
" transform="scale(0.015625)"/>
       <path id="DejaVuSans-74" d="M 1172 4494 
L 1172 3500 
L 2356 3500 
L 2356 3053 
L 1172 3053 
L 1172 1153 
Q 1172 725 1289 603 
Q 1406 481 1766 481 
L 2356 481 
L 2356 0 
L 1766 0 
Q 1100 0 847 248 
Q 594 497 594 1153 
L 594 3053 
L 172 3053 
L 172 3500 
L 594 3500 
L 594 4494 
L 1172 4494 
z
" transform="scale(0.015625)"/>
       <path id="DejaVuSans-61" d="M 2194 1759 
Q 1497 1759 1228 1600 
Q 959 1441 959 1056 
Q 959 750 1161 570 
Q 1363 391 1709 391 
Q 2188 391 2477 730 
Q 2766 1069 2766 1631 
L 2766 1759 
L 2194 1759 
z
M 3341 1997 
L 3341 0 
L 2766 0 
L 2766 531 
Q 2569 213 2275 61 
Q 1981 -91 1556 -91 
Q 1019 -91 701 211 
Q 384 513 384 1019 
Q 384 1609 779 1909 
Q 1175 2209 1959 2209 
L 2766 2209 
L 2766 2266 
Q 2766 2663 2505 2880 
Q 2244 3097 1772 3097 
Q 1472 3097 1187 3025 
Q 903 2953 641 2809 
L 641 3341 
Q 956 3463 1253 3523 
Q 1550 3584 1831 3584 
Q 2591 3584 2966 3190 
Q 3341 2797 3341 1997 
z
" transform="scale(0.015625)"/>
      </defs>
      <use xlink:href="#DejaVuSans-62"/>
      <use xlink:href="#DejaVuSans-65" x="63.476562"/>
      <use xlink:href="#DejaVuSans-74" x="125"/>
      <use xlink:href="#DejaVuSans-61" x="164.208984"/>
     </g>
    </g>
   </g>
   <g id="matplotlib.axis_4">
    <g id="ytick_9">
     <g id="line2d_49">
      <path d="M 81 537.74372 
L 583.2 537.74372 
" clip-path="url(#pb656c92a89)" style="fill: none; stroke: #b0b0b0; stroke-width: 0.8; stroke-linecap: square"/>
     </g>
     <g id="line2d_50">
      <g>
       <use xlink:href="#md9fe231cdb" x="81" y="537.74372" style="stroke: #000000; stroke-width: 0.8"/>
      </g>
     </g>
     <g id="text_27">
      <!-- −0.0001 -->
      <g transform="translate(30.629687 541.542939) scale(0.1 -0.1)">
       <use xlink:href="#DejaVuSans-2212"/>
       <use xlink:href="#DejaVuSans-30" x="83.789062"/>
       <use xlink:href="#DejaVuSans-2e" x="147.412109"/>
       <use xlink:href="#DejaVuSans-30" x="179.199219"/>
       <use xlink:href="#DejaVuSans-30" x="242.822266"/>
       <use xlink:href="#DejaVuSans-30" x="306.445312"/>
       <use xlink:href="#DejaVuSans-31" x="370.068359"/>
      </g>
     </g>
    </g>
    <g id="ytick_10">
     <g id="line2d_51">
      <path d="M 81 491.439367 
L 583.2 491.439367 
" clip-path="url(#pb656c92a89)" style="fill: none; stroke: #b0b0b0; stroke-width: 0.8; stroke-linecap: square"/>
     </g>
     <g id="line2d_52">
      <g>
       <use xlink:href="#md9fe231cdb" x="81" y="491.439367" style="stroke: #000000; stroke-width: 0.8"/>
      </g>
     </g>
     <g id="text_28">
      <!-- 0.0000 -->
      <g transform="translate(39.009375 495.238585) scale(0.1 -0.1)">
       <use xlink:href="#DejaVuSans-30"/>
       <use xlink:href="#DejaVuSans-2e" x="63.623047"/>
       <use xlink:href="#DejaVuSans-30" x="95.410156"/>
       <use xlink:href="#DejaVuSans-30" x="159.033203"/>
       <use xlink:href="#DejaVuSans-30" x="222.65625"/>
       <use xlink:href="#DejaVuSans-30" x="286.279297"/>
      </g>
     </g>
    </g>
    <g id="ytick_11">
     <g id="line2d_53">
      <path d="M 81 445.135013 
L 583.2 445.135013 
" clip-path="url(#pb656c92a89)" style="fill: none; stroke: #b0b0b0; stroke-width: 0.8; stroke-linecap: square"/>
     </g>
     <g id="line2d_54">
      <g>
       <use xlink:href="#md9fe231cdb" x="81" y="445.135013" style="stroke: #000000; stroke-width: 0.8"/>
      </g>
     </g>
     <g id="text_29">
      <!-- 0.0001 -->
      <g transform="translate(39.009375 448.934232) scale(0.1 -0.1)">
       <use xlink:href="#DejaVuSans-30"/>
       <use xlink:href="#DejaVuSans-2e" x="63.623047"/>
       <use xlink:href="#DejaVuSans-30" x="95.410156"/>
       <use xlink:href="#DejaVuSans-30" x="159.033203"/>
       <use xlink:href="#DejaVuSans-30" x="222.65625"/>
       <use xlink:href="#DejaVuSans-31" x="286.279297"/>
      </g>
     </g>
    </g>
    <g id="ytick_12">
     <g id="line2d_55">
      <path d="M 81 398.83066 
L 583.2 398.83066 
" clip-path="url(#pb656c92a89)" style="fill: none; stroke: #b0b0b0; stroke-width: 0.8; stroke-linecap: square"/>
     </g>
     <g id="line2d_56">
      <g>
       <use xlink:href="#md9fe231cdb" x="81" y="398.83066" style="stroke: #000000; stroke-width: 0.8"/>
      </g>
     </g>
     <g id="text_30">
      <!-- 0.0002 -->
      <g transform="translate(39.009375 402.629879) scale(0.1 -0.1)">
       <use xlink:href="#DejaVuSans-30"/>
       <use xlink:href="#DejaVuSans-2e" x="63.623047"/>
       <use xlink:href="#DejaVuSans-30" x="95.410156"/>
       <use xlink:href="#DejaVuSans-30" x="159.033203"/>
       <use xlink:href="#DejaVuSans-30" x="222.65625"/>
       <use xlink:href="#DejaVuSans-32" x="286.279297"/>
      </g>
     </g>
    </g>
    <g id="ytick_13">
     <g id="line2d_57">
      <path d="M 81 352.526306 
L 583.2 352.526306 
" clip-path="url(#pb656c92a89)" style="fill: none; stroke: #b0b0b0; stroke-width: 0.8; stroke-linecap: square"/>
     </g>
     <g id="line2d_58">
      <g>
       <use xlink:href="#md9fe231cdb" x="81" y="352.526306" style="stroke: #000000; stroke-width: 0.8"/>
      </g>
     </g>
     <g id="text_31">
      <!-- 0.0003 -->
      <g transform="translate(39.009375 356.325525) scale(0.1 -0.1)">
       <defs>
        <path id="DejaVuSans-33" d="M 2597 2516 
Q 3050 2419 3304 2112 
Q 3559 1806 3559 1356 
Q 3559 666 3084 287 
Q 2609 -91 1734 -91 
Q 1441 -91 1130 -33 
Q 819 25 488 141 
L 488 750 
Q 750 597 1062 519 
Q 1375 441 1716 441 
Q 2309 441 2620 675 
Q 2931 909 2931 1356 
Q 2931 1769 2642 2001 
Q 2353 2234 1838 2234 
L 1294 2234 
L 1294 2753 
L 1863 2753 
Q 2328 2753 2575 2939 
Q 2822 3125 2822 3475 
Q 2822 3834 2567 4026 
Q 2313 4219 1838 4219 
Q 1578 4219 1281 4162 
Q 984 4106 628 3988 
L 628 4550 
Q 988 4650 1302 4700 
Q 1616 4750 1894 4750 
Q 2613 4750 3031 4423 
Q 3450 4097 3450 3541 
Q 3450 3153 3228 2886 
Q 3006 2619 2597 2516 
z
" transform="scale(0.015625)"/>
       </defs>
       <use xlink:href="#DejaVuSans-30"/>
       <use xlink:href="#DejaVuSans-2e" x="63.623047"/>
       <use xlink:href="#DejaVuSans-30" x="95.410156"/>
       <use xlink:href="#DejaVuSans-30" x="159.033203"/>
       <use xlink:href="#DejaVuSans-30" x="222.65625"/>
       <use xlink:href="#DejaVuSans-33" x="286.279297"/>
      </g>
     </g>
    </g>
    <g id="text_32">
     <!-- ${N_D}'$ -->
     <g transform="translate(24.55 471.07) rotate(-90) scale(0.1 -0.1)">
      <defs>
       <path id="DejaVuSans-Oblique-4e" d="M 1081 4666 
L 1931 4666 
L 3219 666 
L 4000 4666 
L 4616 4666 
L 3706 0 
L 2853 0 
L 1569 4025 
L 788 0 
L 172 0 
L 1081 4666 
z
" transform="scale(0.015625)"/>
      </defs>
      <use xlink:href="#DejaVuSans-Oblique-4e" transform="translate(0 0.584375)"/>
      <use xlink:href="#DejaVuSans-Oblique-44" transform="translate(74.804688 -15.821875) scale(0.7)"/>
      <use xlink:href="#Cmsy10-30" transform="translate(132.397461 38.865625) scale(0.7)"/>
     </g>
    </g>
   </g>
   <g id="line2d_59">
    <g clip-path="url(#pb656c92a89)">
     <use xlink:href="#m1edf7c9869" x="275.031818" y="477.352393" style="fill: #1f77b4; stroke: #1f77b4"/>
     <use xlink:href="#m1edf7c9869" x="275.031818" y="476.407525" style="fill: #1f77b4; stroke: #1f77b4"/>
     <use xlink:href="#m1edf7c9869" x="275.031818" y="474.750945" style="fill: #1f77b4; stroke: #1f77b4"/>
     <use xlink:href="#m1edf7c9869" x="275.031818" y="475.828676" style="fill: #1f77b4; stroke: #1f77b4"/>
     <use xlink:href="#m1edf7c9869" x="446.236364" y="390.143169" style="fill: #1f77b4; stroke: #1f77b4"/>
     <use xlink:href="#m1edf7c9869" x="446.236364" y="392.315237" style="fill: #1f77b4; stroke: #1f77b4"/>
     <use xlink:href="#m1edf7c9869" x="446.236364" y="368.206918" style="fill: #1f77b4; stroke: #1f77b4"/>
     <use xlink:href="#m1edf7c9869" x="446.236364" y="371.782147" style="fill: #1f77b4; stroke: #1f77b4"/>
    </g>
   </g>
   <g id="line2d_60">
    <path d="M 275.031818 476.087387 
L 280.935423 472.797716 
L 286.839028 469.508088 
L 292.742633 466.218545 
L 298.646238 462.929131 
L 304.549843 459.639889 
L 310.453448 456.350861 
L 316.357053 453.06209 
L 322.260658 449.77362 
L 328.164263 446.485492 
L 334.067868 443.197751 
L 339.971473 439.910439 
L 345.875078 436.623598 
L 351.778683 433.337272 
L 357.682288 430.051503 
L 363.585893 426.766335 
L 369.489498 423.48181 
L 375.393103 420.197971 
L 381.296708 416.91486 
L 387.200313 413.632521 
L 393.103918 410.350997 
L 399.007524 407.070329 
L 404.911129 403.790562 
L 410.814734 400.511737 
L 416.718339 397.233898 
L 422.621944 393.957087 
L 428.525549 390.681347 
L 434.429154 387.40672 
L 440.332759 384.13325 
L 446.236364 380.860979 
" clip-path="url(#pb656c92a89)" style="fill: none; stroke-dasharray: 5.55,2.4; stroke-dashoffset: 0; stroke: #1f77b4; stroke-width: 1.5"/>
   </g>
   <g id="line2d_61">
    <g clip-path="url(#pb656c92a89)">
     <use xlink:href="#m9eaa296e35" x="103.827273" y="566.410909" style="fill: #ff7f0e; stroke: #ff7f0e"/>
     <use xlink:href="#m9eaa296e35" x="103.827273" y="559.920239" style="fill: #ff7f0e; stroke: #ff7f0e"/>
     <use xlink:href="#m9eaa296e35" x="103.827273" y="558.844899" style="fill: #ff7f0e; stroke: #ff7f0e"/>
     <use xlink:href="#m9eaa296e35" x="103.827273" y="562.278124" style="fill: #ff7f0e; stroke: #ff7f0e"/>
     <use xlink:href="#m9eaa296e35" x="275.031818" y="492.930652" style="fill: #ff7f0e; stroke: #ff7f0e"/>
     <use xlink:href="#m9eaa296e35" x="275.031818" y="490.593191" style="fill: #ff7f0e; stroke: #ff7f0e"/>
     <use xlink:href="#m9eaa296e35" x="275.031818" y="493.94949" style="fill: #ff7f0e; stroke: #ff7f0e"/>
     <use xlink:href="#m9eaa296e35" x="275.031818" y="492.869878" style="fill: #ff7f0e; stroke: #ff7f0e"/>
     <use xlink:href="#m9eaa296e35" x="275.031818" y="494.214885" style="fill: #ff7f0e; stroke: #ff7f0e"/>
     <use xlink:href="#m9eaa296e35" x="275.031818" y="493.343868" style="fill: #ff7f0e; stroke: #ff7f0e"/>
     <use xlink:href="#m9eaa296e35" x="275.031818" y="493.118674" style="fill: #ff7f0e; stroke: #ff7f0e"/>
     <use xlink:href="#m9eaa296e35" x="275.031818" y="490.793777" style="fill: #ff7f0e; stroke: #ff7f0e"/>
     <use xlink:href="#m9eaa296e35" x="275.031818" y="492.329451" style="fill: #ff7f0e; stroke: #ff7f0e"/>
     <use xlink:href="#m9eaa296e35" x="275.031818" y="493.074935" style="fill: #ff7f0e; stroke: #ff7f0e"/>
     <use xlink:href="#m9eaa296e35" x="275.031818" y="492.155634" style="fill: #ff7f0e; stroke: #ff7f0e"/>
     <use xlink:href="#m9eaa296e35" x="275.031818" y="491.850669" style="fill: #ff7f0e; stroke: #ff7f0e"/>
     <use xlink:href="#m9eaa296e35" x="446.236364" y="417.922097" style="fill: #ff7f0e; stroke: #ff7f0e"/>
     <use xlink:href="#m9eaa296e35" x="446.236364" y="411.189805" style="fill: #ff7f0e; stroke: #ff7f0e"/>
     <use xlink:href="#m9eaa296e35" x="446.236364" y="420.127217" style="fill: #ff7f0e; stroke: #ff7f0e"/>
     <use xlink:href="#m9eaa296e35" x="446.236364" y="419.417242" style="fill: #ff7f0e; stroke: #ff7f0e"/>
     <use xlink:href="#m9eaa296e35" x="446.236364" y="420.74684" style="fill: #ff7f0e; stroke: #ff7f0e"/>
     <use xlink:href="#m9eaa296e35" x="560.372727" y="367.513315" style="fill: #ff7f0e; stroke: #ff7f0e"/>
     <use xlink:href="#m9eaa296e35" x="560.372727" y="360.929536" style="fill: #ff7f0e; stroke: #ff7f0e"/>
    </g>
   </g>
   <g id="line2d_62">
    <path d="M 103.827273 563.404937 
L 119.570219 556.415168 
L 135.313166 549.532453 
L 151.056113 542.746246 
L 166.79906 536.045907 
L 182.542006 529.420712 
L 198.284953 522.859864 
L 214.0279 516.352504 
L 229.770846 509.887721 
L 245.513793 503.454561 
L 261.25674 497.042041 
L 276.999687 490.639157 
L 292.742633 484.234896 
L 308.48558 477.818247 
L 324.228527 471.37821 
L 339.971473 464.903807 
L 355.71442 458.384097 
L 371.457367 451.808178 
L 387.200313 445.165206 
L 402.94326 438.444402 
L 418.686207 431.635062 
L 434.429154 424.726569 
L 450.1721 417.7084 
L 465.915047 410.570143 
L 481.657994 403.3015 
L 497.40094 395.892301 
L 513.143887 388.332513 
L 528.886834 380.61225 
L 544.629781 372.721784 
L 560.372727 364.651551 
" clip-path="url(#pb656c92a89)" style="fill: none; stroke-dasharray: 5.55,2.4; stroke-dashoffset: 0; stroke: #ff7f0e; stroke-width: 1.5"/>
   </g>
   <g id="patch_9">
    <path d="M 81 576.72 
L 81 349.92 
" style="fill: none; stroke: #000000; stroke-width: 0.8; stroke-linejoin: miter; stroke-linecap: square"/>
   </g>
   <g id="patch_10">
    <path d="M 583.2 576.72 
L 583.2 349.92 
" style="fill: none; stroke: #000000; stroke-width: 0.8; stroke-linejoin: miter; stroke-linecap: square"/>
   </g>
   <g id="patch_11">
    <path d="M 81 576.72 
L 583.2 576.72 
" style="fill: none; stroke: #000000; stroke-width: 0.8; stroke-linejoin: miter; stroke-linecap: square"/>
   </g>
   <g id="patch_12">
    <path d="M 81 349.92 
L 583.2 349.92 
" style="fill: none; stroke: #000000; stroke-width: 0.8; stroke-linejoin: miter; stroke-linecap: square"/>
   </g>
  </g>
 </g>
 <defs>
  <clipPath id="p284d12bd24">
   <rect x="81" y="77.76" width="502.2" height="226.8"/>
  </clipPath>
  <clipPath id="pb656c92a89">
   <rect x="81" y="349.92" width="502.2" height="226.8"/>
  </clipPath>
 </defs>
</svg>
