<?xml version="1.0" encoding="utf-8" standalone="no"?>
<!DOCTYPE svg PUBLIC "-//W3C//DTD SVG 1.1//EN"
  "http://www.w3.org/Graphics/SVG/1.1/DTD/svg11.dtd">
<svg xmlns:xlink="http://www.w3.org/1999/xlink" width="460.8pt" height="345.6pt" viewBox="0 0 460.8 345.6" xmlns="http://www.w3.org/2000/svg" version="1.1">
 <metadata>
  <rdf:RDF xmlns:dc="http://purl.org/dc/elements/1.1/" xmlns:cc="http://creativecommons.org/ns#" xmlns:rdf="http://www.w3.org/1999/02/22-rdf-syntax-ns#">
   <cc:Work>
    <dc:type rdf:resource="http://purl.org/dc/dcmitype/StillImage"/>
    <dc:date>2024-03-18T18:08:11.750722</dc:date>
    <dc:format>image/svg+xml</dc:format>
    <dc:creator>
     <cc:Agent>
      <dc:title>Matplotlib v3.8.2, https://matplotlib.org/</dc:title>
     </cc:Agent>
    </dc:creator>
   </cc:Work>
  </rdf:RDF>
 </metadata>
 <defs>
  <style type="text/css">*{stroke-linejoin: round; stroke-linecap: butt}</style>
 </defs>
 <g id="figure_1">
  <g id="patch_1">
   <path d="M 0 345.6 
L 460.8 345.6 
L 460.8 0 
L 0 0 
z
" style="fill: #ffffff"/>
  </g>
  <g id="axes_1">
   <g id="patch_2">
    <path d="M 57.6 307.584 
L 414.72 307.584 
L 414.72 41.472 
L 57.6 41.472 
z
" style="fill: #ffffff"/>
   </g>
   <g id="matplotlib.axis_1">
    <g id="xtick_1">
     <g id="line2d_1">
      <defs>
       <path id="m3f6015a58d" d="M 0 0 
L 0 3.5 
" style="stroke: #000000; stroke-width: 0.8"/>
      </defs>
      <g>
       <use xlink:href="#m3f6015a58d" x="73.832727" y="307.584" style="stroke: #000000; stroke-width: 0.8"/>
      </g>
     </g>
     <g id="text_1">
      <!-- 0 -->
      <g transform="translate(70.651477 322.182437) scale(0.1 -0.1)">
       <defs>
        <path id="DejaVuSans-30" d="M 2034 4250 
Q 1547 4250 1301 3770 
Q 1056 3291 1056 2328 
Q 1056 1369 1301 889 
Q 1547 409 2034 409 
Q 2525 409 2770 889 
Q 3016 1369 3016 2328 
Q 3016 3291 2770 3770 
Q 2525 4250 2034 4250 
z
M 2034 4750 
Q 2819 4750 3233 4129 
Q 3647 3509 3647 2328 
Q 3647 1150 3233 529 
Q 2819 -91 2034 -91 
Q 1250 -91 836 529 
Q 422 1150 422 2328 
Q 422 3509 836 4129 
Q 1250 4750 2034 4750 
z
" transform="scale(0.015625)"/>
       </defs>
       <use xlink:href="#DejaVuSans-30"/>
      </g>
     </g>
    </g>
    <g id="xtick_2">
     <g id="line2d_2">
      <g>
       <use xlink:href="#m3f6015a58d" x="120.332144" y="307.584" style="stroke: #000000; stroke-width: 0.8"/>
      </g>
     </g>
     <g id="text_2">
      <!-- 10 -->
      <g transform="translate(113.969644 322.182437) scale(0.1 -0.1)">
       <defs>
        <path id="DejaVuSans-31" d="M 794 531 
L 1825 531 
L 1825 4091 
L 703 3866 
L 703 4441 
L 1819 4666 
L 2450 4666 
L 2450 531 
L 3481 531 
L 3481 0 
L 794 0 
L 794 531 
z
" transform="scale(0.015625)"/>
       </defs>
       <use xlink:href="#DejaVuSans-31"/>
       <use xlink:href="#DejaVuSans-30" x="63.623047"/>
      </g>
     </g>
    </g>
    <g id="xtick_3">
     <g id="line2d_3">
      <g>
       <use xlink:href="#m3f6015a58d" x="166.831562" y="307.584" style="stroke: #000000; stroke-width: 0.8"/>
      </g>
     </g>
     <g id="text_3">
      <!-- 20 -->
      <g transform="translate(160.469062 322.182437) scale(0.1 -0.1)">
       <defs>
        <path id="DejaVuSans-32" d="M 1228 531 
L 3431 531 
L 3431 0 
L 469 0 
L 469 531 
Q 828 903 1448 1529 
Q 2069 2156 2228 2338 
Q 2531 2678 2651 2914 
Q 2772 3150 2772 3378 
Q 2772 3750 2511 3984 
Q 2250 4219 1831 4219 
Q 1534 4219 1204 4116 
Q 875 4013 500 3803 
L 500 4441 
Q 881 4594 1212 4672 
Q 1544 4750 1819 4750 
Q 2544 4750 2975 4387 
Q 3406 4025 3406 3419 
Q 3406 3131 3298 2873 
Q 3191 2616 2906 2266 
Q 2828 2175 2409 1742 
Q 1991 1309 1228 531 
z
" transform="scale(0.015625)"/>
       </defs>
       <use xlink:href="#DejaVuSans-32"/>
       <use xlink:href="#DejaVuSans-30" x="63.623047"/>
      </g>
     </g>
    </g>
    <g id="xtick_4">
     <g id="line2d_4">
      <g>
       <use xlink:href="#m3f6015a58d" x="213.330979" y="307.584" style="stroke: #000000; stroke-width: 0.8"/>
      </g>
     </g>
     <g id="text_4">
      <!-- 30 -->
      <g transform="translate(206.968479 322.182437) scale(0.1 -0.1)">
       <defs>
        <path id="DejaVuSans-33" d="M 2597 2516 
Q 3050 2419 3304 2112 
Q 3559 1806 3559 1356 
Q 3559 666 3084 287 
Q 2609 -91 1734 -91 
Q 1441 -91 1130 -33 
Q 819 25 488 141 
L 488 750 
Q 750 597 1062 519 
Q 1375 441 1716 441 
Q 2309 441 2620 675 
Q 2931 909 2931 1356 
Q 2931 1769 2642 2001 
Q 2353 2234 1838 2234 
L 1294 2234 
L 1294 2753 
L 1863 2753 
Q 2328 2753 2575 2939 
Q 2822 3125 2822 3475 
Q 2822 3834 2567 4026 
Q 2313 4219 1838 4219 
Q 1578 4219 1281 4162 
Q 984 4106 628 3988 
L 628 4550 
Q 988 4650 1302 4700 
Q 1616 4750 1894 4750 
Q 2613 4750 3031 4423 
Q 3450 4097 3450 3541 
Q 3450 3153 3228 2886 
Q 3006 2619 2597 2516 
z
" transform="scale(0.015625)"/>
       </defs>
       <use xlink:href="#DejaVuSans-33"/>
       <use xlink:href="#DejaVuSans-30" x="63.623047"/>
      </g>
     </g>
    </g>
    <g id="xtick_5">
     <g id="line2d_5">
      <g>
       <use xlink:href="#m3f6015a58d" x="259.830396" y="307.584" style="stroke: #000000; stroke-width: 0.8"/>
      </g>
     </g>
     <g id="text_5">
      <!-- 40 -->
      <g transform="translate(253.467896 322.182437) scale(0.1 -0.1)">
       <defs>
        <path id="DejaVuSans-34" d="M 2419 4116 
L 825 1625 
L 2419 1625 
L 2419 4116 
z
M 2253 4666 
L 3047 4666 
L 3047 1625 
L 3713 1625 
L 3713 1100 
L 3047 1100 
L 3047 0 
L 2419 0 
L 2419 1100 
L 313 1100 
L 313 1709 
L 2253 4666 
z
" transform="scale(0.015625)"/>
       </defs>
       <use xlink:href="#DejaVuSans-34"/>
       <use xlink:href="#DejaVuSans-30" x="63.623047"/>
      </g>
     </g>
    </g>
    <g id="xtick_6">
     <g id="line2d_6">
      <g>
       <use xlink:href="#m3f6015a58d" x="306.329813" y="307.584" style="stroke: #000000; stroke-width: 0.8"/>
      </g>
     </g>
     <g id="text_6">
      <!-- 50 -->
      <g transform="translate(299.967313 322.182437) scale(0.1 -0.1)">
       <defs>
        <path id="DejaVuSans-35" d="M 691 4666 
L 3169 4666 
L 3169 4134 
L 1269 4134 
L 1269 2991 
Q 1406 3038 1543 3061 
Q 1681 3084 1819 3084 
Q 2600 3084 3056 2656 
Q 3513 2228 3513 1497 
Q 3513 744 3044 326 
Q 2575 -91 1722 -91 
Q 1428 -91 1123 -41 
Q 819 9 494 109 
L 494 744 
Q 775 591 1075 516 
Q 1375 441 1709 441 
Q 2250 441 2565 725 
Q 2881 1009 2881 1497 
Q 2881 1984 2565 2268 
Q 2250 2553 1709 2553 
Q 1456 2553 1204 2497 
Q 953 2441 691 2322 
L 691 4666 
z
" transform="scale(0.015625)"/>
       </defs>
       <use xlink:href="#DejaVuSans-35"/>
       <use xlink:href="#DejaVuSans-30" x="63.623047"/>
      </g>
     </g>
    </g>
    <g id="xtick_7">
     <g id="line2d_7">
      <g>
       <use xlink:href="#m3f6015a58d" x="352.82923" y="307.584" style="stroke: #000000; stroke-width: 0.8"/>
      </g>
     </g>
     <g id="text_7">
      <!-- 60 -->
      <g transform="translate(346.46673 322.182437) scale(0.1 -0.1)">
       <defs>
        <path id="DejaVuSans-36" d="M 2113 2584 
Q 1688 2584 1439 2293 
Q 1191 2003 1191 1497 
Q 1191 994 1439 701 
Q 1688 409 2113 409 
Q 2538 409 2786 701 
Q 3034 994 3034 1497 
Q 3034 2003 2786 2293 
Q 2538 2584 2113 2584 
z
M 3366 4563 
L 3366 3988 
Q 3128 4100 2886 4159 
Q 2644 4219 2406 4219 
Q 1781 4219 1451 3797 
Q 1122 3375 1075 2522 
Q 1259 2794 1537 2939 
Q 1816 3084 2150 3084 
Q 2853 3084 3261 2657 
Q 3669 2231 3669 1497 
Q 3669 778 3244 343 
Q 2819 -91 2113 -91 
Q 1303 -91 875 529 
Q 447 1150 447 2328 
Q 447 3434 972 4092 
Q 1497 4750 2381 4750 
Q 2619 4750 2861 4703 
Q 3103 4656 3366 4563 
z
" transform="scale(0.015625)"/>
       </defs>
       <use xlink:href="#DejaVuSans-36"/>
       <use xlink:href="#DejaVuSans-30" x="63.623047"/>
      </g>
     </g>
    </g>
    <g id="xtick_8">
     <g id="line2d_8">
      <g>
       <use xlink:href="#m3f6015a58d" x="399.328647" y="307.584" style="stroke: #000000; stroke-width: 0.8"/>
      </g>
     </g>
     <g id="text_8">
      <!-- 70 -->
      <g transform="translate(392.966147 322.182437) scale(0.1 -0.1)">
       <defs>
        <path id="DejaVuSans-37" d="M 525 4666 
L 3525 4666 
L 3525 4397 
L 1831 0 
L 1172 0 
L 2766 4134 
L 525 4134 
L 525 4666 
z
" transform="scale(0.015625)"/>
       </defs>
       <use xlink:href="#DejaVuSans-37"/>
       <use xlink:href="#DejaVuSans-30" x="63.623047"/>
      </g>
     </g>
    </g>
    <g id="text_9">
     <!-- Time [s] -->
     <g transform="translate(215.831094 335.860562) scale(0.1 -0.1)">
      <defs>
       <path id="DejaVuSans-54" d="M -19 4666 
L 3928 4666 
L 3928 4134 
L 2272 4134 
L 2272 0 
L 1638 0 
L 1638 4134 
L -19 4134 
L -19 4666 
z
" transform="scale(0.015625)"/>
       <path id="DejaVuSans-69" d="M 603 3500 
L 1178 3500 
L 1178 0 
L 603 0 
L 603 3500 
z
M 603 4863 
L 1178 4863 
L 1178 4134 
L 603 4134 
L 603 4863 
z
" transform="scale(0.015625)"/>
       <path id="DejaVuSans-6d" d="M 3328 2828 
Q 3544 3216 3844 3400 
Q 4144 3584 4550 3584 
Q 5097 3584 5394 3201 
Q 5691 2819 5691 2113 
L 5691 0 
L 5113 0 
L 5113 2094 
Q 5113 2597 4934 2840 
Q 4756 3084 4391 3084 
Q 3944 3084 3684 2787 
Q 3425 2491 3425 1978 
L 3425 0 
L 2847 0 
L 2847 2094 
Q 2847 2600 2669 2842 
Q 2491 3084 2119 3084 
Q 1678 3084 1418 2786 
Q 1159 2488 1159 1978 
L 1159 0 
L 581 0 
L 581 3500 
L 1159 3500 
L 1159 2956 
Q 1356 3278 1631 3431 
Q 1906 3584 2284 3584 
Q 2666 3584 2933 3390 
Q 3200 3197 3328 2828 
z
" transform="scale(0.015625)"/>
       <path id="DejaVuSans-65" d="M 3597 1894 
L 3597 1613 
L 953 1613 
Q 991 1019 1311 708 
Q 1631 397 2203 397 
Q 2534 397 2845 478 
Q 3156 559 3463 722 
L 3463 178 
Q 3153 47 2828 -22 
Q 2503 -91 2169 -91 
Q 1331 -91 842 396 
Q 353 884 353 1716 
Q 353 2575 817 3079 
Q 1281 3584 2069 3584 
Q 2775 3584 3186 3129 
Q 3597 2675 3597 1894 
z
M 3022 2063 
Q 3016 2534 2758 2815 
Q 2500 3097 2075 3097 
Q 1594 3097 1305 2825 
Q 1016 2553 972 2059 
L 3022 2063 
z
" transform="scale(0.015625)"/>
       <path id="DejaVuSans-20" transform="scale(0.015625)"/>
       <path id="DejaVuSans-5b" d="M 550 4863 
L 1875 4863 
L 1875 4416 
L 1125 4416 
L 1125 -397 
L 1875 -397 
L 1875 -844 
L 550 -844 
L 550 4863 
z
" transform="scale(0.015625)"/>
       <path id="DejaVuSans-73" d="M 2834 3397 
L 2834 2853 
Q 2591 2978 2328 3040 
Q 2066 3103 1784 3103 
Q 1356 3103 1142 2972 
Q 928 2841 928 2578 
Q 928 2378 1081 2264 
Q 1234 2150 1697 2047 
L 1894 2003 
Q 2506 1872 2764 1633 
Q 3022 1394 3022 966 
Q 3022 478 2636 193 
Q 2250 -91 1575 -91 
Q 1294 -91 989 -36 
Q 684 19 347 128 
L 347 722 
Q 666 556 975 473 
Q 1284 391 1588 391 
Q 1994 391 2212 530 
Q 2431 669 2431 922 
Q 2431 1156 2273 1281 
Q 2116 1406 1581 1522 
L 1381 1569 
Q 847 1681 609 1914 
Q 372 2147 372 2553 
Q 372 3047 722 3315 
Q 1072 3584 1716 3584 
Q 2034 3584 2315 3537 
Q 2597 3491 2834 3397 
z
" transform="scale(0.015625)"/>
       <path id="DejaVuSans-5d" d="M 1947 4863 
L 1947 -844 
L 622 -844 
L 622 -397 
L 1369 -397 
L 1369 4416 
L 622 4416 
L 622 4863 
L 1947 4863 
z
" transform="scale(0.015625)"/>
      </defs>
      <use xlink:href="#DejaVuSans-54"/>
      <use xlink:href="#DejaVuSans-69" x="57.958984"/>
      <use xlink:href="#DejaVuSans-6d" x="85.742188"/>
      <use xlink:href="#DejaVuSans-65" x="183.154297"/>
      <use xlink:href="#DejaVuSans-20" x="244.677734"/>
      <use xlink:href="#DejaVuSans-5b" x="276.464844"/>
      <use xlink:href="#DejaVuSans-73" x="315.478516"/>
      <use xlink:href="#DejaVuSans-5d" x="367.578125"/>
     </g>
    </g>
   </g>
   <g id="matplotlib.axis_2">
    <g id="ytick_1">
     <g id="line2d_9">
      <defs>
       <path id="m1962096517" d="M 0 0 
L -3.5 0 
" style="stroke: #000000; stroke-width: 0.8"/>
      </defs>
      <g>
       <use xlink:href="#m1962096517" x="57.6" y="292.634399" style="stroke: #000000; stroke-width: 0.8"/>
      </g>
     </g>
     <g id="text_10">
      <!-- −1.5 -->
      <g transform="translate(26.317187 296.433617) scale(0.1 -0.1)">
       <defs>
        <path id="DejaVuSans-2212" d="M 678 2272 
L 4684 2272 
L 4684 1741 
L 678 1741 
L 678 2272 
z
" transform="scale(0.015625)"/>
        <path id="DejaVuSans-2e" d="M 684 794 
L 1344 794 
L 1344 0 
L 684 0 
L 684 794 
z
" transform="scale(0.015625)"/>
       </defs>
       <use xlink:href="#DejaVuSans-2212"/>
       <use xlink:href="#DejaVuSans-31" x="83.789062"/>
       <use xlink:href="#DejaVuSans-2e" x="147.412109"/>
       <use xlink:href="#DejaVuSans-35" x="179.199219"/>
      </g>
     </g>
    </g>
    <g id="ytick_2">
     <g id="line2d_10">
      <g>
       <use xlink:href="#m1962096517" x="57.6" y="254.405065" style="stroke: #000000; stroke-width: 0.8"/>
      </g>
     </g>
     <g id="text_11">
      <!-- −1.0 -->
      <g transform="translate(26.317187 258.204284) scale(0.1 -0.1)">
       <use xlink:href="#DejaVuSans-2212"/>
       <use xlink:href="#DejaVuSans-31" x="83.789062"/>
       <use xlink:href="#DejaVuSans-2e" x="147.412109"/>
       <use xlink:href="#DejaVuSans-30" x="179.199219"/>
      </g>
     </g>
    </g>
    <g id="ytick_3">
     <g id="line2d_11">
      <g>
       <use xlink:href="#m1962096517" x="57.6" y="216.175732" style="stroke: #000000; stroke-width: 0.8"/>
      </g>
     </g>
     <g id="text_12">
      <!-- −0.5 -->
      <g transform="translate(26.317187 219.974951) scale(0.1 -0.1)">
       <use xlink:href="#DejaVuSans-2212"/>
       <use xlink:href="#DejaVuSans-30" x="83.789062"/>
       <use xlink:href="#DejaVuSans-2e" x="147.412109"/>
       <use xlink:href="#DejaVuSans-35" x="179.199219"/>
      </g>
     </g>
    </g>
    <g id="ytick_4">
     <g id="line2d_12">
      <g>
       <use xlink:href="#m1962096517" x="57.6" y="177.946399" style="stroke: #000000; stroke-width: 0.8"/>
      </g>
     </g>
     <g id="text_13">
      <!-- 0.0 -->
      <g transform="translate(34.696875 181.745617) scale(0.1 -0.1)">
       <use xlink:href="#DejaVuSans-30"/>
       <use xlink:href="#DejaVuSans-2e" x="63.623047"/>
       <use xlink:href="#DejaVuSans-30" x="95.410156"/>
      </g>
     </g>
    </g>
    <g id="ytick_5">
     <g id="line2d_13">
      <g>
       <use xlink:href="#m1962096517" x="57.6" y="139.717065" style="stroke: #000000; stroke-width: 0.8"/>
      </g>
     </g>
     <g id="text_14">
      <!-- 0.5 -->
      <g transform="translate(34.696875 143.516284) scale(0.1 -0.1)">
       <use xlink:href="#DejaVuSans-30"/>
       <use xlink:href="#DejaVuSans-2e" x="63.623047"/>
       <use xlink:href="#DejaVuSans-35" x="95.410156"/>
      </g>
     </g>
    </g>
    <g id="ytick_6">
     <g id="line2d_14">
      <g>
       <use xlink:href="#m1962096517" x="57.6" y="101.487732" style="stroke: #000000; stroke-width: 0.8"/>
      </g>
     </g>
     <g id="text_15">
      <!-- 1.0 -->
      <g transform="translate(34.696875 105.286951) scale(0.1 -0.1)">
       <use xlink:href="#DejaVuSans-31"/>
       <use xlink:href="#DejaVuSans-2e" x="63.623047"/>
       <use xlink:href="#DejaVuSans-30" x="95.410156"/>
      </g>
     </g>
    </g>
    <g id="ytick_7">
     <g id="line2d_15">
      <g>
       <use xlink:href="#m1962096517" x="57.6" y="63.258399" style="stroke: #000000; stroke-width: 0.8"/>
      </g>
     </g>
     <g id="text_16">
      <!-- 1.5 -->
      <g transform="translate(34.696875 67.057617) scale(0.1 -0.1)">
       <use xlink:href="#DejaVuSans-31"/>
       <use xlink:href="#DejaVuSans-2e" x="63.623047"/>
       <use xlink:href="#DejaVuSans-35" x="95.410156"/>
      </g>
     </g>
    </g>
    <g id="text_17">
     <!-- $\phi$ [deg] -->
     <g transform="translate(20.217187 192.778) rotate(-90) scale(0.1 -0.1)">
      <defs>
       <path id="DejaVuSans-Oblique-3d5" d="M 2991 4863 
L 2738 3572 
Q 3363 3572 3684 3094 
Q 4016 2606 3850 1747 
Q 3681 888 3159 400 
Q 2653 -78 2028 -78 
L 1784 -1331 
L 1213 -1331 
L 1456 -78 
Q 834 -78 509 400 
Q 178 888 347 1747 
Q 513 2606 1034 3094 
Q 1544 3572 2166 3572 
L 2419 4863 
L 2991 4863 
z
M 2128 434 
Q 2481 434 2784 756 
Q 3116 1116 3244 1747 
Q 3369 2372 3169 2738 
Q 2991 3059 2638 3059 
L 2128 434 
z
M 1556 434 
L 2066 3059 
Q 1716 3059 1413 2738 
Q 1072 2372 953 1747 
Q 834 1116 1028 756 
Q 1203 434 1556 434 
z
" transform="scale(0.015625)"/>
       <path id="DejaVuSans-64" d="M 2906 2969 
L 2906 4863 
L 3481 4863 
L 3481 0 
L 2906 0 
L 2906 525 
Q 2725 213 2448 61 
Q 2172 -91 1784 -91 
Q 1150 -91 751 415 
Q 353 922 353 1747 
Q 353 2572 751 3078 
Q 1150 3584 1784 3584 
Q 2172 3584 2448 3432 
Q 2725 3281 2906 2969 
z
M 947 1747 
Q 947 1113 1208 752 
Q 1469 391 1925 391 
Q 2381 391 2643 752 
Q 2906 1113 2906 1747 
Q 2906 2381 2643 2742 
Q 2381 3103 1925 3103 
Q 1469 3103 1208 2742 
Q 947 2381 947 1747 
z
" transform="scale(0.015625)"/>
       <path id="DejaVuSans-67" d="M 2906 1791 
Q 2906 2416 2648 2759 
Q 2391 3103 1925 3103 
Q 1463 3103 1205 2759 
Q 947 2416 947 1791 
Q 947 1169 1205 825 
Q 1463 481 1925 481 
Q 2391 481 2648 825 
Q 2906 1169 2906 1791 
z
M 3481 434 
Q 3481 -459 3084 -895 
Q 2688 -1331 1869 -1331 
Q 1566 -1331 1297 -1286 
Q 1028 -1241 775 -1147 
L 775 -588 
Q 1028 -725 1275 -790 
Q 1522 -856 1778 -856 
Q 2344 -856 2625 -561 
Q 2906 -266 2906 331 
L 2906 616 
Q 2728 306 2450 153 
Q 2172 0 1784 0 
Q 1141 0 747 490 
Q 353 981 353 1791 
Q 353 2603 747 3093 
Q 1141 3584 1784 3584 
Q 2172 3584 2450 3431 
Q 2728 3278 2906 2969 
L 2906 3500 
L 3481 3500 
L 3481 434 
z
" transform="scale(0.015625)"/>
      </defs>
      <use xlink:href="#DejaVuSans-Oblique-3d5" transform="translate(0 0.015625)"/>
      <use xlink:href="#DejaVuSans-20" transform="translate(65.966797 0.015625)"/>
      <use xlink:href="#DejaVuSans-5b" transform="translate(97.753906 0.015625)"/>
      <use xlink:href="#DejaVuSans-64" transform="translate(136.767578 0.015625)"/>
      <use xlink:href="#DejaVuSans-65" transform="translate(200.244141 0.015625)"/>
      <use xlink:href="#DejaVuSans-67" transform="translate(261.767578 0.015625)"/>
      <use xlink:href="#DejaVuSans-5d" transform="translate(325.244141 0.015625)"/>
     </g>
    </g>
   </g>
   <g id="line2d_16">
    <path d="M 73.832727 172.962844 
L 73.971291 172.9005 
L 74.109854 173.123625 
L 74.156042 172.943156 
L 74.20223 173.373 
L 74.294606 173.222063 
L 74.386982 173.281125 
L 74.43317 173.074406 
L 74.479357 173.494406 
L 74.525545 173.041594 
L 74.571733 173.432063 
L 74.617921 173.281125 
L 74.710297 173.3205 
L 74.84886 173.674875 
L 74.895048 173.586281 
L 75.125988 174.229406 
L 75.172176 174.130969 
L 75.310739 174.682219 
L 75.356927 174.639563 
L 75.403115 174.705188 
L 76.280684 176.746125 
L 76.511624 177.513938 
L 77.666321 180.335812 
L 77.89726 180.713156 
L 78.128199 181.22175 
L 78.174387 181.192219 
L 78.451514 181.6155 
L 78.913393 181.90425 
L 78.959581 181.999406 
L 79.051957 181.950188 
L 79.236708 181.979719 
L 79.375272 181.933781 
L 79.513835 181.963312 
L 79.652399 182.002688 
L 79.837151 182.147062 
L 80.437593 183.318469 
L 80.622344 183.813937 
L 80.991847 185.333156 
L 81.823229 189.966281 
L 82.88555 197.96925 
L 83.393617 202.162687 
L 84.363562 209.027063 
L 85.656822 215.176125 
L 85.841574 215.445187 
L 86.072513 215.418938 
L 86.257265 215.08425 
L 86.719143 212.915344 
L 87.781464 201.949406 
L 88.659034 188.463469 
L 90.783676 155.427844 
L 91.384118 150.315656 
L 91.984561 147.375656 
L 92.030748 147.319875 
L 92.2155 146.909719 
L 92.354064 146.689875 
L 92.492627 146.880188 
L 92.538815 146.827688 
L 92.769754 147.457688 
L 92.815942 147.424875 
L 93.093069 148.192688 
L 93.416385 149.19675 
L 95.125336 156.628781 
L 95.67959 157.580344 
L 95.864342 157.557375 
L 96.002905 157.518 
L 96.233845 157.183313 
L 96.372408 156.960188 
L 97.019039 153.751125 
L 97.434729 150.594563 
L 97.665669 148.809563 
L 100.621692 117.663938 
L 101.083571 114.513938 
L 101.406886 113.168625 
L 102.145892 111.373781 
L 102.284456 111.298313 
L 102.561583 111.528 
L 102.884898 112.007063 
L 102.977274 112.039875 
L 103.48534 113.201438 
L 104.824789 118.22175 
L 104.870977 118.22175 
L 105.517607 120.236438 
L 105.979486 120.475969 
L 106.256613 120.626906 
L 106.487552 120.6105 
L 106.764679 120.174094 
L 108.011752 114.979875 
L 110.8754 95.8305 
L 111.106339 94.901906 
L 111.568218 93.507375 
L 111.845345 93.02175 
L 113.04623 90.124406 
L 113.785236 86.892375 
L 115.032308 78.462844 
L 116.648884 64.488 
L 118.173083 55.339875 
L 118.357835 54.818156 
L 118.68115 54.007688 
L 118.958277 53.597531 
L 119.32778 53.791125 
L 119.604907 54.148781 
L 119.928223 54.745969 
L 120.159162 55.398938 
L 121.775737 63.864563 
L 123.207561 72.746906 
L 124.962701 79.519406 
L 125.470767 81.327375 
L 126.4869 86.777531 
L 127.36447 94.577063 
L 128.380603 106.894875 
L 130.82856 136.833 
L 131.798505 143.950031 
L 132.168008 145.488938 
L 132.814639 147.208313 
L 133.137954 147.648 
L 133.368893 147.67425 
L 133.415081 147.739875 
L 133.461269 147.684094 
L 133.784584 147.641438 
L 133.969335 147.598781 
L 134.385026 147.355969 
L 135.216408 147.559406 
L 135.493535 147.93675 
L 135.724474 148.425656 
L 136.971547 154.161281 
L 137.710553 159.896906 
L 138.449559 166.797375 
L 141.03608 190.025344 
L 141.359395 191.915344 
L 142.32934 195.098156 
L 142.375528 195.108 
L 142.560279 195.445969 
L 142.698843 195.593625 
L 143.160722 195.754406 
L 143.345473 195.862687 
L 143.530225 195.829875 
L 143.761164 195.770813 
L 144.130667 195.2655 
L 144.176855 195.285188 
L 144.315418 195.108 
L 144.361606 195.098156 
L 144.50017 194.940656 
L 144.546358 194.963625 
L 144.684921 194.861906 
L 145.054424 194.743781 
L 145.1468 194.753625 
L 145.285364 194.697844 
L 145.79343 194.940656 
L 145.931994 195.219562 
L 145.978182 195.124406 
L 146.116745 195.505031 
L 146.162933 195.439406 
L 146.347685 195.770813 
L 146.393873 195.76425 
L 146.624812 196.433625 
L 147.271442 198.461437 
L 148.61089 205.3455 
L 149.950339 213.781594 
L 151.289787 220.0455 
L 151.566914 220.816594 
L 151.936417 221.814094 
L 152.167357 222.227531 
L 152.259732 222.253781 
L 152.490672 222.424406 
L 152.53686 222.391594 
L 152.583047 222.493313 
L 152.721611 222.509719 
L 152.860175 222.667219 
L 153.275865 222.765656 
L 153.414429 222.723 
L 153.599181 222.542531 
L 153.876308 222.296437 
L 154.47675 221.925656 
L 155.215756 221.220188 
L 155.539071 221.249719 
L 155.723823 221.262844 
L 156.370453 221.705813 
L 156.509016 221.938781 
L 156.555204 221.932219 
L 156.786144 222.309563 
L 156.832332 222.214406 
L 156.970895 222.578625 
L 157.017083 222.542531 
L 157.248022 223.185656 
L 157.29421 223.1955 
L 157.617525 224.124094 
L 158.495095 226.699875 
L 158.81841 228.032062 
L 158.956974 228.425812 
L 159.280289 229.551281 
L 159.649792 230.657063 
L 159.926919 231.582375 
L 160.943052 234.236906 
L 160.98924 234.240188 
L 161.266367 234.801281 
L 161.774434 236.054719 
L 162.467252 236.822531 
L 162.605815 236.92425 
L 162.744379 237.255656 
L 162.790567 237.213 
L 162.975318 237.495188 
L 163.437197 237.655969 
L 163.760512 237.629719 
L 164.037639 237.777375 
L 164.083827 237.744563 
L 164.222391 237.892219 
L 164.360954 237.885656 
L 164.499518 238.020188 
L 164.545706 237.984094 
L 164.591894 238.066125 
L 165.377088 238.272844 
L 165.746591 238.548469 
L 165.792778 238.489406 
L 165.838966 238.587844 
L 165.97753 238.571437 
L 166.254657 238.893 
L 166.300845 238.876594 
L 166.531784 239.303156 
L 166.577972 239.299875 
L 166.808912 239.673938 
L 167.50173 240.678 
L 168.194548 242.088937 
L 168.425487 242.551594 
L 168.564051 242.784563 
L 168.933554 243.588469 
L 169.072117 243.785344 
L 169.303057 244.297219 
L 169.487808 244.677844 
L 170.365378 246.088781 
L 170.457753 246.183938 
L 170.781069 246.590813 
L 170.919632 246.699094 
L 171.104384 246.869719 
L 171.751014 247.168313 
L 171.797202 247.1355 
L 171.935765 247.342219 
L 172.074329 247.293 
L 172.212893 247.503 
L 172.351456 247.42425 
L 172.397644 247.565344 
L 172.49002 247.499719 
L 172.720959 247.58175 
L 172.767147 247.447219 
L 172.859523 247.506281 
L 173.13665 247.565344 
L 173.413777 247.667063 
L 173.690904 247.709719 
L 173.737092 247.512844 
L 173.78328 247.690031 
L 173.829468 247.690031 
L 173.875656 247.496438 
L 173.968032 247.532531 
L 174.106595 247.667063 
L 174.245159 247.650656 
L 174.42991 247.788469 
L 174.66085 247.860656 
L 175.492231 248.26425 
L 175.723171 248.6055 
L 175.861734 248.733469 
L 176.092674 249.048469 
L 176.138862 248.973 
L 176.185049 249.064875 
L 176.508365 249.409406 
L 176.60074 249.481594 
L 177.293558 250.406906 
L 177.570686 250.649719 
L 177.709249 250.695656 
L 178.032564 251.161594 
L 178.078752 251.138625 
L 178.217316 251.358469 
L 178.263504 251.328937 
L 178.402067 251.614406 
L 178.448255 251.561906 
L 178.77157 251.821125 
L 178.910134 251.827688 
L 179.187261 252.067219 
L 179.325825 252.119719 
L 179.695328 252.444563 
L 179.880079 252.552844 
L 179.926267 252.398625 
L 180.018643 252.434719 
L 180.157206 252.46425 
L 180.388146 252.434719 
L 180.572897 252.46425 
L 180.711461 252.454406 
L 180.896212 252.523313 
L 181.17334 252.480656 
L 181.681406 251.972062 
L 181.81997 251.929406 
L 182.143285 251.863781 
L 182.281848 251.680031 
L 182.328036 251.709563 
L 182.558976 251.456906 
L 182.605164 251.489719 
L 182.743727 251.319094 
L 182.882291 251.263312 
L 183.020854 251.155031 
L 183.297982 251.128781 
L 184.036988 251.161594 
L 184.406491 251.588156 
L 184.683618 251.935969 
L 184.960745 252.290344 
L 185.145496 252.526594 
L 185.514999 253.399406 
L 185.607375 253.543781 
L 186.115442 254.626594 
L 186.16163 254.620031 
L 186.484945 255.35175 
L 186.669696 255.699563 
L 187.270139 256.9005 
L 187.408702 257.058 
L 187.593454 257.274563 
L 187.685829 257.350031 
L 188.378647 257.986594 
L 188.517211 257.97675 
L 188.794338 257.868469 
L 189.764284 257.166281 
L 191.288483 254.282063 
L 191.565611 253.707844 
L 192.027489 252.999094 
L 192.073677 253.038469 
L 192.304616 252.592219 
L 192.396992 252.520031 
L 192.812683 251.896594 
L 192.858871 251.958938 
L 192.997435 251.765344 
L 193.043622 251.935969 
L 193.08981 251.798156 
L 193.228374 251.896594 
L 193.274562 251.745656 
L 193.32075 251.916281 
L 193.366937 251.870344 
L 193.413125 251.935969 
L 193.73644 252.438 
L 194.290695 254.925188 
L 195.029701 260.007844 
L 196.045834 271.036125 
L 197.43147 286.661438 
L 197.570034 287.809875 
L 197.893349 290.785969 
L 197.939537 290.868 
L 198.170476 292.715344 
L 198.216664 292.646438 
L 198.355228 293.630813 
L 198.401415 293.532375 
L 198.539979 294.460969 
L 198.586167 294.257531 
L 198.724731 294.972844 
L 198.770918 294.825188 
L 198.909482 295.284563 
L 198.95567 295.245188 
L 199.094234 295.471594 
L 199.463736 295.173 
L 199.925615 293.561906 
L 200.849373 287.652375 
L 201.449815 282.769875 
L 201.77313 279.977531 
L 202.41976 273.98925 
L 203.435893 267.075656 
L 203.620645 266.281594 
L 203.990148 265.16925 
L 204.082524 265.067531 
L 204.313463 264.795188 
L 204.544402 264.706594 
L 204.59059 264.578625 
L 204.636778 264.709875 
L 204.775342 264.667219 
L 205.006281 265.021594 
L 205.283408 265.520344 
L 206.11479 267.7155 
L 206.207166 267.840188 
L 206.391917 268.089562 
L 206.530481 268.178156 
L 206.853796 268.096125 
L 206.899984 268.217531 
L 207.038547 267.892688 
L 207.084735 267.938625 
L 207.823741 264.375188 
L 208.193244 261.471281 
L 208.886062 254.40675 
L 209.532692 245.025656 
L 210.271698 233.544563 
L 210.825953 225.05925 
L 211.842086 212.104875 
L 212.904407 204.787688 
L 213.135346 204.033 
L 213.181534 204.069094 
L 213.320098 203.937844 
L 213.458661 203.928 
L 213.597225 203.911594 
L 213.828164 203.898469 
L 214.059104 203.842687 
L 214.382419 204.210187 
L 214.982861 206.188781 
L 215.629491 207.173156 
L 216.229934 208.7055 
L 216.414685 208.8105 
L 216.645624 208.515187 
L 216.738 208.383938 
L 217.061315 207.927844 
L 217.107503 207.983625 
L 217.153691 207.914719 
L 217.523194 207.179719 
L 218.031261 204.288938 
L 218.955018 198.113625 
L 219.832588 189.890812 
L 220.386842 184.430813 
L 221.541539 173.799563 
L 222.419108 168.41175 
L 223.435242 164.241281 
L 224.358999 162.991125 
L 224.497563 162.968156 
L 224.959441 163.440656 
L 225.144193 163.437375 
L 225.375132 163.335656 
L 225.698447 163.493156 
L 225.883199 163.804875 
L 226.114138 163.998469 
L 226.529829 163.840969 
L 226.71458 163.6605 
L 227.084083 163.63425 
L 227.361211 163.571906 
L 227.730714 162.8205 
L 227.823089 162.623625 
L 228.700659 160.444875 
L 228.977786 159.358781 
L 229.023974 159.303 
L 229.347289 157.865813 
L 229.485853 157.353938 
L 229.993919 154.925813 
L 230.825301 150.584719 
L 231.194804 148.67175 
L 231.795246 145.374094 
L 232.534252 142.210969 
L 232.996131 140.783625 
L 233.042319 140.819719 
L 233.273258 140.212688 
L 233.504197 139.832063 
L 233.781325 139.389094 
L 234.10464 139.087219 
L 234.289391 139.047844 
L 234.335579 139.097063 
L 234.381767 139.038 
L 234.427955 139.031438 
L 234.474143 139.165969 
L 234.566518 139.103625 
L 234.797458 139.389094 
L 234.889834 139.362844 
L 235.074585 139.648313 
L 236.229282 140.970656 
L 236.460221 141.334875 
L 236.691161 141.6105 
L 236.875912 141.905813 
L 237.199227 142.096125 
L 237.245415 142.0305 
L 237.291603 142.063313 
L 237.476354 142.10925 
L 237.614918 142.046906 
L 237.753482 142.0305 
L 238.076797 141.902531 
L 238.261548 141.672844 
L 238.353924 141.512063 
L 238.769615 140.688469 
L 239.139118 139.625344 
L 239.231493 139.4055 
L 239.647184 138.158625 
L 242.741772 126.667688 
L 243.480778 125.20425 
L 243.988844 124.630031 
L 244.265971 124.610344 
L 245.051165 124.531594 
L 245.466856 124.817063 
L 245.928735 125.187844 
L 245.974923 125.181281 
L 246.113486 125.328938 
L 246.760116 125.745656 
L 246.991056 125.929406 
L 248.099565 125.732531 
L 248.330504 125.506125 
L 248.376692 125.558625 
L 248.42288 125.460188 
L 248.746195 125.109094 
L 248.977134 124.744875 
L 249.023322 124.78425 
L 249.254261 124.360969 
L 249.900892 123.100969 
L 250.131831 122.398781 
L 250.178019 122.385656 
L 250.455146 121.614563 
L 250.547522 121.358625 
L 251.656031 118.412063 
L 252.071722 117.296438 
L 252.256473 116.889563 
L 252.5336 116.164406 
L 252.579788 116.167688 
L 252.810728 115.59675 
L 252.856915 115.750969 
L 252.995479 115.2555 
L 253.041667 115.301438 
L 253.18023 114.897844 
L 253.226418 114.920813 
L 253.457358 114.464719 
L 254.750618 113.070188 
L 254.889182 112.991438 
L 254.93537 113.063625 
L 255.674376 112.847063 
L 255.812939 112.781438 
L 255.951503 112.856906 
L 256.090066 112.879875 
L 256.274818 113.047219 
L 256.459569 113.1555 
L 256.598133 113.257219 
L 256.967636 113.198156 
L 257.1062 113.211281 
L 257.52189 113.54925 
L 257.706642 113.736281 
L 257.845205 113.687063 
L 257.891393 113.752688 
L 257.937581 113.710031 
L 258.307084 113.450813 
L 258.353272 113.523 
L 258.39946 113.457375 
L 258.584211 113.414719 
L 258.722775 113.568938 
L 258.768963 113.463938 
L 258.815151 113.644406 
L 258.861339 113.421281 
L 258.907526 113.572219 
L 259.04609 113.362219 
L 259.092278 113.467219 
L 259.138466 113.309719 
L 259.184654 113.404875 
L 259.323217 113.204719 
L 259.369405 113.2605 
L 259.554157 113.011125 
L 259.69272 112.893 
L 260.016035 112.450031 
L 260.200787 112.200656 
L 260.847417 111.304875 
L 260.893605 111.327844 
L 261.032169 111.104719 
L 261.078356 111.108 
L 261.309296 110.756906 
L 261.632611 110.300813 
L 261.86355 109.972688 
L 261.909738 110.035031 
L 262.048302 109.798781 
L 262.09449 109.851281 
L 262.140677 109.756125 
L 262.186865 109.762688 
L 262.417805 109.395188 
L 262.51018 109.257375 
L 262.833496 108.8505 
L 263.295374 108.653625 
L 263.480126 108.702844 
L 263.618689 108.555188 
L 263.757253 108.532219 
L 263.988192 108.423938 
L 264.219132 108.499406 
L 265.420016 109.385344 
L 265.55858 109.624875 
L 265.604768 109.539563 
L 265.743331 109.779094 
L 265.881895 109.746281 
L 265.928083 109.903781 
L 266.020459 109.870969 
L 266.159022 109.775813 
L 266.297586 109.867688 
L 266.343774 109.831594 
L 266.482337 110.021906 
L 266.620901 110.120344 
L 266.667089 110.235188 
L 266.759465 110.179406 
L 266.944216 110.238469 
L 266.990404 110.126906 
L 267.036592 110.179406 
L 267.08278 110.231906 
L 267.128968 110.143313 
L 267.406095 110.169563 
L 267.544658 110.015344 
L 267.683222 110.071125 
L 267.821786 109.913625 
L 267.867973 110.0055 
L 267.914161 109.910344 
L 268.329852 109.378781 
L 268.37604 109.500188 
L 268.422228 109.332844 
L 268.468416 109.40175 
L 268.606979 109.099875 
L 268.653167 109.126125 
L 268.976482 108.525656 
L 269.02267 108.548625 
L 269.25361 107.93175 
L 269.299797 108.017063 
L 269.530737 107.416594 
L 269.576925 107.446125 
L 269.854052 106.730813 
L 271.008749 104.132063 
L 271.84013 103.170656 
L 271.886318 103.223156 
L 272.024882 102.921281 
L 272.07107 102.924563 
L 272.209633 102.790031 
L 272.625324 103.111594 
L 272.671512 103.0755 
L 272.810076 103.200188 
L 273.041015 103.20675 
L 273.271954 103.203469 
L 273.595269 103.672688 
L 274.2419 104.830969 
L 274.288088 104.758781 
L 274.426651 105.073781 
L 274.472839 104.981906 
L 274.611403 105.434719 
L 274.657591 105.293625 
L 274.796154 105.753 
L 274.842342 105.739875 
L 275.073281 106.261594 
L 275.165657 106.264875 
L 275.350409 106.455188 
L 275.488972 106.481438 
L 275.719912 106.747219 
L 275.997039 107.173781 
L 276.320354 107.403469 
L 276.505105 107.455969 
L 276.643669 107.331281 
L 276.782233 107.403469 
L 276.920796 107.288625 
L 276.966984 107.505188 
L 277.05936 107.465813 
L 277.244111 107.223 
L 277.290299 107.3805 
L 277.336487 107.173781 
L 277.382675 107.24925 
L 277.613614 106.451906 
L 277.70599 106.153313 
L 278.167869 104.023781 
L 278.537372 101.818781 
L 280.569638 81.678469 
L 281.077705 76.287375 
L 282.04765 68.304094 
L 282.925219 65.24925 
L 283.109971 65.206594 
L 283.294722 65.383781 
L 284.495607 69.905344 
L 286.481685 84.316594 
L 287.174504 88.336125 
L 287.451631 89.500969 
L 287.728758 90.347531 
L 288.467764 91.860188 
L 288.56014 91.942219 
L 288.606328 91.902844 
L 288.744891 91.863469 
L 289.530085 90.925031 
L 289.576273 90.980813 
L 289.714836 90.833156 
L 290.130527 90.321281 
L 290.50003 90.268781 
L 290.73097 90.826594 
L 290.777157 90.823313 
L 291.562351 93.185813 
L 292.624672 101.917219 
L 293.54843 113.208 
L 294.425999 125.010656 
L 296.227326 143.415188 
L 297.058708 147.152531 
L 297.428211 147.851438 
L 297.474399 147.838313 
L 297.65915 148.025344 
L 297.797714 148.104094 
L 298.121029 148.051594 
L 298.490532 147.602063 
L 298.721471 147.316594 
L 299.229538 146.581594 
L 299.368102 146.453625 
L 299.599041 146.076281 
L 299.645229 146.148469 
L 299.691417 146.030344 
L 299.968544 145.797375 
L 300.615174 145.764563 
L 301.215616 146.634094 
L 302.277937 151.008 
L 304.17164 165.225656 
L 304.910646 170.958 
L 305.141585 172.624875 
L 305.511088 175.28925 
L 306.019155 178.560656 
L 306.434846 180.772219 
L 306.942912 183.124875 
L 307.404791 184.7655 
L 308.005233 186.284719 
L 308.051421 186.258469 
L 308.236173 186.589875 
L 308.744239 187.2855 
L 308.882803 187.36425 
L 309.021367 187.465969 
L 309.344682 187.538156 
L 309.483245 187.544719 
L 310.453191 187.863 
L 310.591754 187.849875 
L 311.146009 188.069719 
L 311.654075 188.706281 
L 311.746451 188.739094 
L 311.97739 189.086906 
L 312.023578 189.047531 
L 312.254518 189.529875 
L 312.393081 189.8055 
L 312.577833 190.271437 
L 312.808772 190.848938 
L 313.085899 191.646281 
L 313.316839 192.269719 
L 313.363026 192.259875 
L 313.593966 192.958781 
L 313.640154 193.008 
L 313.871093 194.064562 
L 313.917281 194.140031 
L 314.286784 195.803625 
L 315.02579 198.868313 
L 315.118166 199.271906 
L 315.256729 199.750969 
L 315.487668 200.925656 
L 315.533856 200.945344 
L 315.764796 201.998625 
L 315.995735 202.822219 
L 316.503802 205.043625 
L 316.54999 205.096125 
L 316.827117 206.070656 
L 317.242808 207.409406 
L 317.335183 207.652219 
L 318.028001 209.384719 
L 318.074189 209.36175 
L 318.305129 209.719406 
L 318.443692 209.798156 
L 318.628444 210.09675 
L 318.674632 209.985188 
L 318.813195 210.244406 
L 318.859383 210.139406 
L 318.997947 210.431438 
L 319.13651 210.333 
L 319.275074 210.523312 
L 319.413638 210.365813 
L 319.459825 210.483938 
L 319.506013 210.323156 
L 319.552201 210.415031 
L 319.644577 210.365813 
L 319.78314 210.244406 
L 319.829328 210.388781 
L 319.875516 210.260813 
L 319.921704 210.310031 
L 320.01408 210.355969 
L 320.060268 210.195187 
L 320.198831 210.300187 
L 320.337395 210.172219 
L 321.399716 209.752219 
L 321.53828 209.837531 
L 321.676843 209.703 
L 321.815407 209.863781 
L 321.861595 209.680031 
L 321.907783 209.893313 
L 321.95397 209.722688 
L 322.092534 209.88675 
L 322.138722 209.785031 
L 322.18491 209.926125 
L 322.231098 209.867062 
L 322.369661 210.155813 
L 322.415849 210.031125 
L 322.462037 210.136125 
L 322.692976 210.382219 
L 323.016291 210.7005 
L 323.062479 210.661125 
L 323.339607 211.107375 
L 323.47817 211.419094 
L 323.801485 212.465812 
L 323.847673 212.344406 
L 323.986237 212.866125 
L 324.032425 212.72175 
L 324.170988 213.200813 
L 324.217176 213.08925 
L 324.35574 213.6405 
L 324.401928 213.440344 
L 324.540491 214.099875 
L 324.586679 213.939094 
L 324.725243 214.634719 
L 324.771431 214.526437 
L 325.00237 215.523938 
L 325.048558 215.494406 
L 325.187121 216.085031 
L 325.233309 216.078469 
L 325.418061 216.534562 
L 325.464249 216.534562 
L 325.741376 217.335188 
L 326.249442 219.057844 
L 326.480382 219.891281 
L 326.52657 219.86175 
L 326.849885 220.75425 
L 327.080824 221.341594 
L 327.404139 222.211125 
L 327.450327 222.125812 
L 327.588891 222.6705 
L 327.635079 222.417844 
L 327.681266 222.739406 
L 327.727454 222.509719 
L 327.866018 222.936281 
L 327.912206 222.795188 
L 327.958394 222.962531 
L 328.004582 222.913313 
L 328.189333 223.284094 
L 328.743587 223.894406 
L 329.11309 224.032219 
L 329.297842 224.242219 
L 329.436406 224.238937 
L 329.574969 224.403 
L 329.621157 224.304562 
L 329.759721 224.570344 
L 329.898284 224.320969 
L 329.944472 224.590031 
L 329.99066 224.353781 
L 330.036848 224.448938 
L 330.175411 224.215969 
L 330.313975 224.452219 
L 330.360163 224.206125 
L 330.406351 224.544094 
L 330.452539 224.252062 
L 330.591102 224.783625 
L 330.63729 224.435813 
L 330.729666 224.524406 
L 330.775854 224.806594 
L 330.822042 224.491594 
L 330.86823 224.760656 
L 331.052981 224.48175 
L 331.099169 224.681906 
L 331.145357 224.327531 
L 331.237733 224.435813 
L 331.422484 224.511281 
L 331.51486 224.544094 
L 331.699611 224.855813 
L 331.745799 224.826281 
L 331.884363 225.016594 
L 331.976738 225.023156 
L 332.022926 225.101906 
L 332.069114 224.996906 
L 332.207678 225.026438 
L 332.346241 224.941125 
L 332.530993 225.010031 
L 332.669557 225.118312 
L 332.900496 225.630188 
L 332.946684 225.597375 
L 333.085247 225.984562 
L 333.131435 225.941906 
L 333.269999 226.165031 
L 333.408562 226.174875 
L 333.547126 226.3455 
L 333.593314 226.315969 
L 333.824253 226.808156 
L 333.870441 226.726125 
L 334.101381 227.303625 
L 334.424696 228.015656 
L 334.563259 228.150187 
L 334.794199 228.481594 
L 334.840386 228.475031 
L 335.163702 229.351125 
L 336.965029 232.763625 
L 337.011216 232.675031 
L 337.057404 232.799719 
L 337.103592 232.766906 
L 337.242156 233.140969 
L 337.288344 233.042531 
L 337.426907 233.659406 
L 337.473095 233.370656 
L 337.611659 233.941594 
L 337.657847 233.833313 
L 337.79641 234.108938 
L 337.842598 234.020344 
L 337.888786 234.151594 
L 338.119725 234.184406 
L 338.627792 234.916125 
L 338.67398 234.820969 
L 338.720168 235.090031 
L 338.812543 235.057219 
L 339.135858 235.263937 
L 339.182046 235.109719 
L 339.228234 235.306594 
L 339.274422 235.306594 
L 339.412986 235.067063 
L 339.551549 235.313156 
L 339.597737 235.1655 
L 339.643925 235.240969 
L 340.059616 235.414875 
L 340.198179 235.598625 
L 340.244367 235.441125 
L 340.336743 235.388625 
L 340.382931 235.6905 
L 340.521495 235.300031 
L 340.567682 235.700344 
L 340.61387 235.231125 
L 340.660058 235.647844 
L 340.752434 235.697062 
L 340.798622 235.332844 
L 340.937185 235.6905 
L 340.983373 235.601906 
L 341.029561 235.733156 
L 341.075749 235.674094 
L 341.214313 235.818469 
L 341.260501 235.765969 
L 341.306688 235.851281 
L 341.676191 235.772531 
L 341.953319 235.884094 
L 341.999506 235.87425 
L 342.13807 236.094094 
L 342.184258 236.067844 
L 342.369009 236.192531 
L 342.507573 236.192531 
L 342.599949 236.153156 
L 342.646137 236.395969 
L 342.692325 236.176125 
L 342.7847 236.231906 
L 342.923264 236.638781 
L 342.969452 236.392688 
L 343.01564 236.628938 
L 343.061827 236.5305 
L 343.200391 236.894719 
L 343.292767 236.960344 
L 343.338955 236.81925 
L 343.477518 237.245813 
L 343.523706 236.97675 
L 343.66227 237.514875 
L 343.708458 237.078469 
L 343.754646 237.567375 
L 343.800833 237.153938 
L 343.939397 237.662531 
L 343.985585 237.295031 
L 344.031773 237.705187 
L 344.077961 237.436125 
L 344.216524 237.849563 
L 344.262712 237.724875 
L 344.401276 238.082531 
L 344.447464 237.997219 
L 344.586027 238.305656 
L 344.632215 238.253156 
L 344.678403 238.361438 
L 344.724591 238.351594 
L 345.001718 238.778156 
L 345.140282 238.909406 
L 345.325033 239.116125 
L 345.786912 239.650969 
L 346.017851 239.96925 
L 346.064039 239.880656 
L 346.156415 240.097219 
L 346.202603 239.975812 
L 346.341166 240.484406 
L 346.387354 240.093937 
L 346.525918 240.753469 
L 346.572106 240.254719 
L 346.618294 240.871594 
L 346.664481 240.363 
L 346.803045 240.947063 
L 346.849233 240.54675 
L 346.895421 240.96675 
L 346.941609 240.605813 
L 346.987797 240.960187 
L 347.080172 240.9405 
L 347.12636 240.746906 
L 347.218736 240.812531 
L 347.357299 241.032375 
L 347.403487 240.930656 
L 347.542051 241.216125 
L 347.588239 241.098 
L 347.726802 241.363781 
L 347.77299 241.203 
L 347.819178 241.435969 
L 347.865366 241.248938 
L 347.957742 241.209563 
L 348.00393 241.426125 
L 348.142493 241.199719 
L 348.188681 241.239094 
L 348.234869 241.147219 
L 348.65056 240.947063 
L 348.789124 241.170188 
L 348.881499 241.206281 
L 348.927687 240.979875 
L 348.973875 241.314563 
L 349.066251 241.242375 
L 349.204814 240.989719 
L 349.251002 241.193156 
L 349.343378 241.104563 
L 349.481942 240.858469 
L 349.528129 240.989719 
L 349.620505 240.947063 
L 349.759069 240.746906 
L 349.805257 240.933938 
L 349.897632 240.953625 
L 349.94382 240.595969 
L 350.036196 240.540188 
L 350.082384 241.032375 
L 350.220948 240.471281 
L 350.267135 240.927375 
L 350.313323 240.438469 
L 350.359511 240.891281 
L 350.498075 240.405656 
L 350.544263 240.779719 
L 350.636638 240.694406 
L 350.682826 240.395813 
L 350.775202 240.425344 
L 350.82139 240.550031 
L 350.913766 240.510656 
L 351.052329 240.402375 
L 351.329456 240.418781 
L 351.514208 240.297375 
L 351.652772 240.3105 
L 351.791335 240.261281 
L 352.11465 240.248156 
L 352.253214 240.356437 
L 352.299402 240.33675 
L 352.437965 240.500813 
L 352.484153 240.477844 
L 352.622717 240.70425 
L 352.668905 240.497531 
L 352.715093 240.789562 
L 352.76128 240.54675 
L 352.899844 240.888 
L 352.946032 240.632062 
L 352.99222 240.878156 
L 353.038408 240.878156 
L 353.084596 240.664875 
L 353.130783 240.933938 
L 353.176971 240.750188 
L 353.315535 240.989719 
L 353.361723 240.989719 
L 353.592662 241.271906 
L 354.239292 242.082375 
L 354.28548 242.01675 
L 354.424044 242.282531 
L 354.470232 242.082375 
L 354.608795 242.463 
L 354.654983 242.325188 
L 354.793547 242.640187 
L 354.839735 242.666438 
L 355.024486 243.030656 
L 355.070674 243.007688 
L 355.255425 243.263625 
L 355.393989 243.470344 
L 355.578741 243.611438 
L 355.717304 243.896906 
L 355.763492 243.752531 
L 355.902056 244.077375 
L 355.948244 243.982219 
L 356.086807 244.372687 
L 356.132995 244.225031 
L 356.179183 244.375969 
L 356.225371 244.336594 
L 356.45631 244.681125 
L 356.687249 244.841906 
L 356.918189 245.147063 
L 356.964377 245.0355 
L 357.10294 245.389875 
L 357.149128 245.232375 
L 357.287692 245.590031 
L 357.33388 245.468625 
L 357.472443 245.750813 
L 357.518631 245.685187 
L 357.657195 245.826281 
L 357.74957 245.839406 
L 357.795758 245.780344 
L 357.841946 245.911594 
L 357.934322 245.859094 
L 358.072886 245.852531 
L 358.442389 246.072375 
L 358.580952 246.033 
L 358.719516 246.108469 
L 358.950455 246.000187 
L 359.089019 245.990344 
L 359.227582 245.947688 
L 359.643273 246.157688 
L 359.689461 245.983781 
L 359.735649 246.233156 
L 359.781837 246.023156 
L 359.9204 246.183938 
L 359.966588 246.183938 
L 360.012776 245.9805 
L 360.105152 246.016594 
L 360.15134 246.046125 
L 360.336091 245.84925 
L 360.659406 245.6655 
L 360.705594 245.832844 
L 360.844158 245.553938 
L 360.982721 245.862375 
L 361.121285 245.530969 
L 361.259849 245.839406 
L 361.306037 245.530969 
L 361.398412 245.550656 
L 361.4446 245.675344 
L 361.536976 245.613 
L 361.67554 245.488313 
L 362.045042 245.432531 
L 362.183606 245.399719 
L 362.506921 245.340656 
L 362.691673 245.281594 
L 362.876424 245.462062 
L 362.922612 245.393156 
L 362.9688 245.514562 
L 363.107364 245.629406 
L 363.245927 246.039563 
L 363.292115 246.023156 
L 363.707806 247.575187 
L 363.753994 247.430813 
L 363.892557 248.270813 
L 363.938745 248.096906 
L 364.169685 249.642375 
L 364.215872 249.675188 
L 364.723939 253.763625 
L 365.13963 256.998938 
L 365.462945 259.955344 
L 365.832448 263.633625 
L 366.802393 272.722688 
L 366.848581 272.722688 
L 367.07952 274.655344 
L 367.402836 277.280344 
L 368.557532 283.193156 
L 368.83466 283.708313 
L 369.157975 283.803469 
L 369.573665 283.17675 
L 370.866926 277.030969 
L 371.513556 272.017219 
L 371.744495 270.438938 
L 372.252562 266.304562 
L 373.361071 259.850344 
L 374.007701 257.678156 
L 374.146265 257.586281 
L 374.284828 257.507531 
L 374.515768 257.632219 
L 374.654331 257.537063 
L 374.700519 257.665031 
L 374.746707 257.50425 
L 374.885271 257.628938 
L 374.931459 257.5305 
L 374.977646 257.645344 
L 375.11621 257.642063 
L 375.393337 258.111281 
L 375.99378 258.787219 
L 376.132343 258.744563 
L 376.363283 258.5805 
L 376.40947 258.619875 
L 376.548034 258.413156 
L 376.686598 258.324562 
L 377.333228 256.116281 
L 377.656543 253.891594 
L 377.887482 252.296906 
L 379.042179 239.979094 
L 380.1045 225.682688 
L 380.335439 222.778781 
L 380.612567 219.589406 
L 380.843506 217.0005 
L 381.351573 211.442062 
L 382.644833 202.684406 
L 382.737209 202.435031 
L 383.430027 200.735344 
L 383.56859 200.768156 
L 383.707154 200.669719 
L 383.938093 200.912531 
L 384.723287 201.762375 
L 385.462293 203.412844 
L 386.386051 204.272531 
L 386.432238 204.1905 
L 386.478426 204.387375 
L 386.570802 204.348 
L 386.709366 204.249563 
L 386.755553 204.288938 
L 386.801741 204.197063 
L 386.847929 204.220031 
L 387.125056 203.616281 
L 388.095002 199.951125 
L 388.464505 197.368781 
L 389.711577 187.052531 
L 390.127268 183.16425 
L 391.882407 168.785813 
L 392.575225 164.9205 
L 392.759977 164.215031 
L 393.12948 162.958313 
L 393.221855 162.800813 
L 393.545171 162.05925 
L 393.637546 161.973938 
L 393.822298 161.747531 
L 394.007049 161.632688 
L 394.053237 161.576906 
L 394.099425 161.619563 
L 394.330364 161.714719 
L 394.42274 161.6655 
L 394.653679 161.859094 
L 394.699867 161.823 
L 394.746055 161.888625 
L 395.254122 162.620344 
L 395.485061 163.050188 
L 396.224067 164.566125 
L 396.316443 164.677688 
L 396.547382 164.933625 
L 396.639758 164.94675 
L 396.916885 165.202688 
L 397.055449 165.238781 
L 397.194012 165.327375 
L 397.332576 165.268313 
L 397.378764 165.307688 
L 397.609703 164.930344 
L 397.702079 164.890969 
L 398.071582 164.031281 
L 398.11777 164.028 
L 398.487273 162.886125 
L 398.487273 162.886125 
" clip-path="url(#p667e88616b)" style="fill: none; stroke: #1f77b4; stroke-width: 1.5; stroke-linecap: square"/>
   </g>
   <g id="patch_3">
    <path d="M 57.6 307.584 
L 57.6 41.472 
" style="fill: none; stroke: #000000; stroke-width: 0.8; stroke-linejoin: miter; stroke-linecap: square"/>
   </g>
   <g id="patch_4">
    <path d="M 414.72 307.584 
L 414.72 41.472 
" style="fill: none; stroke: #000000; stroke-width: 0.8; stroke-linejoin: miter; stroke-linecap: square"/>
   </g>
   <g id="patch_5">
    <path d="M 57.6 307.584 
L 414.72 307.584 
" style="fill: none; stroke: #000000; stroke-width: 0.8; stroke-linejoin: miter; stroke-linecap: square"/>
   </g>
   <g id="patch_6">
    <path d="M 57.6 41.472 
L 414.72 41.472 
" style="fill: none; stroke: #000000; stroke-width: 0.8; stroke-linejoin: miter; stroke-linecap: square"/>
   </g>
   <g id="legend_1">
    <g id="patch_7">
     <path d="M 336.405938 64.42825 
L 407.72 64.42825 
Q 409.72 64.42825 409.72 62.42825 
L 409.72 48.472 
Q 409.72 46.472 407.72 46.472 
L 336.405938 46.472 
Q 334.405938 46.472 334.405938 48.472 
L 334.405938 62.42825 
Q 334.405938 64.42825 336.405938 64.42825 
z
" style="fill: #ffffff; opacity: 0.8; stroke: #cccccc; stroke-linejoin: miter"/>
    </g>
    <g id="line2d_17">
     <path d="M 338.405938 54.570437 
L 348.405938 54.570437 
L 358.405938 54.570437 
" style="fill: none; stroke: #1f77b4; stroke-width: 1.5; stroke-linecap: square"/>
    </g>
    <g id="text_18">
     <!-- phi_deg -->
     <g transform="translate(366.405938 58.070437) scale(0.1 -0.1)">
      <defs>
       <path id="DejaVuSans-70" d="M 1159 525 
L 1159 -1331 
L 581 -1331 
L 581 3500 
L 1159 3500 
L 1159 2969 
Q 1341 3281 1617 3432 
Q 1894 3584 2278 3584 
Q 2916 3584 3314 3078 
Q 3713 2572 3713 1747 
Q 3713 922 3314 415 
Q 2916 -91 2278 -91 
Q 1894 -91 1617 61 
Q 1341 213 1159 525 
z
M 3116 1747 
Q 3116 2381 2855 2742 
Q 2594 3103 2138 3103 
Q 1681 3103 1420 2742 
Q 1159 2381 1159 1747 
Q 1159 1113 1420 752 
Q 1681 391 2138 391 
Q 2594 391 2855 752 
Q 3116 1113 3116 1747 
z
" transform="scale(0.015625)"/>
       <path id="DejaVuSans-68" d="M 3513 2113 
L 3513 0 
L 2938 0 
L 2938 2094 
Q 2938 2591 2744 2837 
Q 2550 3084 2163 3084 
Q 1697 3084 1428 2787 
Q 1159 2491 1159 1978 
L 1159 0 
L 581 0 
L 581 4863 
L 1159 4863 
L 1159 2956 
Q 1366 3272 1645 3428 
Q 1925 3584 2291 3584 
Q 2894 3584 3203 3211 
Q 3513 2838 3513 2113 
z
" transform="scale(0.015625)"/>
       <path id="DejaVuSans-5f" d="M 3263 -1063 
L 3263 -1509 
L -63 -1509 
L -63 -1063 
L 3263 -1063 
z
" transform="scale(0.015625)"/>
      </defs>
      <use xlink:href="#DejaVuSans-70"/>
      <use xlink:href="#DejaVuSans-68" x="63.476562"/>
      <use xlink:href="#DejaVuSans-69" x="126.855469"/>
      <use xlink:href="#DejaVuSans-5f" x="154.638672"/>
      <use xlink:href="#DejaVuSans-64" x="204.638672"/>
      <use xlink:href="#DejaVuSans-65" x="268.115234"/>
      <use xlink:href="#DejaVuSans-67" x="329.638672"/>
     </g>
    </g>
   </g>
  </g>
 </g>
 <defs>
  <clipPath id="p667e88616b">
   <rect x="57.6" y="41.472" width="357.12" height="266.112"/>
  </clipPath>
 </defs>
</svg>
